# Blender v2.82 (sub 7) OBJ File: 'BreakerBody.blend'
# www.blender.org
mtllib BreakerBody.mtl
o Cube
v 2.326730 0.471071 -2.079743
v 2.326730 -0.471071 -2.079743
v 2.307099 0.471071 1.981585
v 2.307099 -0.471071 1.981585
v -1.480977 0.471071 -2.050296
v -1.480977 -0.471071 -2.050296
v -1.490793 0.471071 2.011032
v -1.490793 -0.471071 2.011032
v 2.323690 -0.471071 -2.482802
v -1.484017 -0.471071 -2.453354
v 2.323690 0.471071 -2.482802
v -1.484017 0.471071 -2.453354
v -1.489801 -0.471071 1.600646
v 2.309082 0.471071 1.571199
v -1.489801 0.471071 1.600646
v 2.309082 -0.471071 1.571199
v -1.489036 0.471071 1.284105
v 2.310612 -0.471071 1.254658
v -1.489036 -0.471071 1.284105
v 2.310612 0.471071 1.254658
v -1.482810 0.471071 -1.291856
v 2.323064 -0.471071 -1.321303
v -1.482810 -0.471071 -1.291856
v 2.323064 0.471071 -1.321303
v -1.485401 0.316929 -2.051137
v -1.485401 -0.316929 -2.051137
v -1.487234 0.316929 -1.292697
v -1.493460 -0.316929 1.283264
v -1.494225 -0.316929 1.599805
v -1.494225 0.316929 1.599805
v -1.493460 0.316929 1.283264
v -1.487234 -0.316929 -1.292697
v 2.420876 0.471071 -2.079871
v 2.420876 -0.471071 -2.079871
v 2.417210 -0.471071 -1.321431
v 2.417836 0.471071 -2.482929
v 2.417836 -0.471071 -2.482929
v 2.417210 0.471071 -1.321431
v 2.046113 -0.471071 -2.077573
v 2.027205 0.471071 1.983755
v 2.027205 -0.471071 1.983755
v 2.046113 0.471071 -2.077573
v 2.043074 -0.471071 -2.480632
v 2.043074 0.471071 -2.480632
v 2.029116 -0.471071 1.573369
v 2.029116 0.471071 1.573369
v 2.030590 0.471071 1.256828
v 2.030590 -0.471071 1.256828
v 2.042583 -0.471071 -1.319133
v 2.042583 0.471071 -1.319133
v 2.307739 0.471071 2.064141
v 2.307739 -0.471071 2.064141
v 2.027846 -0.471071 2.066311
v 2.027846 0.471071 2.066311
v 2.410306 0.471071 1.981651
v 2.410306 -0.471071 1.981651
v 2.412289 0.471071 1.571265
v 2.413820 0.471071 1.254724
v 2.412289 -0.471071 1.571265
v 2.413820 -0.471071 1.254724
v 2.410946 0.471071 2.064207
v 2.410946 -0.471071 2.064207
v 1.783723 -0.471071 -2.075544
v 1.765491 0.471071 1.985784
v 1.780683 -0.471071 -2.478603
v 1.767333 -0.471071 1.575398
v 1.768754 -0.471071 1.258857
v 1.780318 -0.471071 -1.317104
v 1.765491 -0.471071 1.985784
v 1.783723 0.471071 -2.075544
v 1.780683 0.471071 -2.478603
v 1.767333 0.471071 1.575398
v 1.768754 0.471071 1.258857
v 1.780318 0.471071 -1.317104
v -1.126854 -0.471071 -2.053035
v -1.137583 0.471071 2.008294
v -1.129894 -0.471071 -2.456093
v -1.136498 -0.471071 1.597907
v -1.135662 -0.471071 1.281367
v -1.128857 -0.471071 -1.294595
v -1.137583 -0.471071 2.008294
v -1.126854 0.471071 -2.053035
v -1.129894 0.471071 -2.456093
v -1.136498 0.471071 1.597907
v -1.135662 0.471071 1.281367
v -1.128857 0.471071 -1.294595
v -0.951133 -0.471071 2.464884
v 1.586122 -0.471071 2.442374
v 1.586122 0.471071 2.442374
v -0.951133 0.471071 2.464884
v -1.802193 0.316929 -2.051903
v -1.802193 -0.316929 -2.051903
v -1.804026 0.316929 -1.293463
v -1.810252 -0.316929 1.282498
v -1.811017 -0.316929 1.599039
v -1.811017 0.316929 1.599039
v -1.810252 0.316929 1.282498
v -1.804026 -0.316929 -1.293463
v -1.485216 -0.471071 -0.296258
v 2.318252 0.471071 -0.325705
v -1.485216 0.471071 -0.296258
v 2.318252 -0.471071 -0.325705
v -1.489640 -0.316929 -0.297099
v -1.489640 0.316929 -0.297099
v 2.037947 -0.471071 -0.323535
v 2.037947 0.471071 -0.323535
v 1.775849 -0.471071 -0.321506
v 1.775849 0.471071 -0.321506
v -1.131487 -0.471071 -0.298996
v -1.131487 0.471071 -0.298996
v -1.806432 -0.316929 -0.297865
v -1.806432 0.316929 -0.297865
v -1.490793 -0.157024 2.011032
v -1.490793 0.157024 2.011032
v -1.480977 0.157024 -2.050296
v -1.480977 -0.157024 -2.050296
v 2.323690 0.157024 -2.482802
v 2.323690 -0.157024 -2.482802
v -1.484017 0.157024 -2.453354
v -1.484017 -0.157024 -2.453354
v -1.489801 0.157024 1.600646
v -1.489801 -0.157024 1.600646
v 2.310612 0.157024 1.254658
v 2.310612 -0.157024 1.254658
v 2.323064 0.157024 -1.321303
v 2.323064 -0.157024 -1.321303
v -1.485401 0.105643 -2.051137
v -1.485401 -0.105643 -2.051137
v -1.494225 0.105643 1.599805
v -1.494225 -0.105643 1.599805
v 2.420876 0.157024 -2.079871
v 2.420876 -0.157024 -2.079871
v 2.417836 0.157024 -2.482929
v 2.417836 -0.157024 -2.482929
v 2.417210 0.157024 -1.321431
v 2.417210 -0.157024 -1.321431
v 2.043074 0.157024 -2.480632
v 2.043074 -0.157024 -2.480632
v 2.027205 0.157024 1.983755
v 2.027205 -0.157024 1.983755
v 2.307739 0.157024 2.064141
v 2.307739 -0.157024 2.064141
v 2.027846 0.157024 2.066311
v 2.027846 -0.157024 2.066311
v 2.410306 0.157024 1.981651
v 2.410306 -0.157024 1.981651
v 2.412289 0.157024 1.571265
v 2.412289 -0.157024 1.571265
v 2.413820 0.157024 1.254724
v 2.413820 -0.157024 1.254724
v 2.410946 0.157024 2.064207
v 2.410946 -0.157024 2.064207
v 1.780683 0.157024 -2.478603
v 1.780683 -0.157024 -2.478603
v 1.765491 0.157024 1.985784
v 1.765491 -0.157024 1.985784
v -1.129894 0.157024 -2.456093
v -1.129894 -0.157024 -2.456093
v -1.137583 0.157024 2.008294
v -1.137583 -0.157024 2.008294
v 1.586122 0.157024 2.442374
v 1.586122 -0.157024 2.442374
v -0.951133 0.157024 2.464884
v -0.951133 -0.157024 2.464884
v -1.802193 0.105643 -2.051903
v -1.802193 -0.105643 -2.051903
v -1.811017 0.105643 1.599039
v -1.811017 -0.105643 1.599039
v -1.810252 0.105643 1.282498
v -1.810252 -0.105643 1.282498
v -1.804026 0.196136 -1.293463
v -1.804026 -0.196136 -1.293463
v -1.806432 0.196136 -0.297865
v -1.806432 -0.196136 -0.297865
v 2.318252 0.157024 -0.325705
v 2.318252 -0.157024 -0.325705
v -1.489375 0.196136 -1.292703
v -1.489375 -0.196136 -1.292703
v -1.491782 0.196136 -0.297104
v -1.491782 -0.196136 -0.297104
vt 0.851750 0.724738
vt 0.875000 0.724738
vt 0.875000 0.750000
vt 0.851750 0.750000
vt 0.541667 0.976750
vt 0.625000 0.976750
vt 0.625000 1.000000
vt 0.541667 1.000000
vt 0.125000 0.500000
vt 0.125000 0.546687
vt 0.125000 0.546687
vt 0.125000 0.500000
vt 0.356576 0.724738
vt 0.375000 0.724738
vt 0.375000 0.750000
vt 0.356576 0.750000
vt 0.375000 0.724738
vt 0.375000 0.750000
vt 0.541667 0.250000
vt 0.625000 0.250000
vt 0.625000 0.250000
vt 0.541667 0.250000
vt 0.541667 0.481576
vt 0.625000 0.481576
vt 0.625000 0.500000
vt 0.541667 0.500000
vt 0.148250 0.500000
vt 0.125000 0.500000
vt 0.148250 0.500000
vt 0.643424 0.500000
vt 0.625000 0.500000
vt 0.643424 0.500000
vt 0.625000 0.546687
vt 0.625000 0.546687
vt 0.625000 0.500000
vt 0.541667 0.705253
vt 0.625000 0.705253
vt 0.625000 0.705253
vt 0.541667 0.705253
vt 0.356576 0.705253
vt 0.375000 0.705253
vt 0.541667 0.000000
vt 0.625000 0.000000
vt 0.625000 0.025262
vt 0.541667 0.025262
vt 0.851750 0.705253
vt 0.875000 0.705253
vt 0.851750 0.607972
vt 0.875000 0.607972
vt 0.356576 0.607972
vt 0.375000 0.607972
vt 0.541667 0.607972
vt 0.625000 0.607972
vt 0.125000 0.705253
vt 0.125000 0.724738
vt 0.125000 0.724738
vt 0.125000 0.705253
vt 0.625000 0.500000
vt 0.356576 0.500000
vt 0.375000 0.500000
vt 0.375000 0.546687
vt 0.356576 0.546687
vt 0.851750 0.500000
vt 0.875000 0.500000
vt 0.875000 0.546687
vt 0.851750 0.546687
vt 0.875000 0.500000
vt 0.875000 0.546687
vt 0.458333 0.250000
vt 0.375000 0.250000
vt 0.375000 0.250000
vt 0.458333 0.250000
vt 0.125000 0.724738
vt 0.125000 0.705253
vt 0.875000 0.724738
vt 0.875000 0.705253
vt 0.875000 0.705253
vt 0.875000 0.724738
vt 0.458333 0.250000
vt 0.375000 0.250000
vt 0.875000 0.607972
vt 0.125000 0.607972
vt 0.125000 0.607972
vt 0.625000 0.025262
vt 0.541667 0.025262
vt 0.458333 0.500000
vt 0.375000 0.500000
vt 0.375000 0.500000
vt 0.458333 0.500000
vt 0.541667 0.500000
vt 0.541667 0.546687
vt 0.541667 0.500000
vt 0.375000 0.546687
vt 0.458333 0.546687
vt 0.458333 0.546687
vt 0.375000 0.500000
vt 0.643424 0.546687
vt 0.339348 0.500000
vt 0.339348 0.546687
vt 0.339348 0.607972
vt 0.339348 0.705253
vt 0.643424 0.607972
vt 0.643424 0.705253
vt 0.643424 0.724738
vt 0.625000 0.724738
vt 0.339348 0.724738
vt 0.660652 0.500000
vt 0.660652 0.500000
vt 0.356576 0.500000
vt 0.541667 0.464348
vt 0.625000 0.464348
vt 0.339348 0.750000
vt 0.375000 0.750000
vt 0.356576 0.750000
vt 0.643424 0.750000
vt 0.625000 0.750000
vt 0.541667 0.750000
vt 0.625000 0.750000
vt 0.625000 0.768424
vt 0.541667 0.768424
vt 0.458333 0.768424
vt 0.375000 0.768424
vt 0.375000 0.768424
vt 0.458333 0.768424
vt 0.375000 0.750000
vt 0.643424 0.750000
vt 0.541667 0.724738
vt 0.625000 0.724738
vt 0.625000 0.750000
vt 0.541667 0.750000
vt 0.625000 0.750000
vt 0.541667 0.750000
vt 0.458333 0.750000
vt 0.458333 0.750000
vt 0.375000 0.705253
vt 0.148250 0.724738
vt 0.148250 0.750000
vt 0.541667 0.273250
vt 0.625000 0.273250
vt 0.851750 0.500000
vt 0.148250 0.705253
vt 0.148250 0.607972
vt 0.148250 0.546687
vt 0.660652 0.546687
vt 0.660652 0.607972
vt 0.660652 0.705253
vt 0.660652 0.724738
vt 0.339348 0.500000
vt 0.541667 0.768424
vt 0.625000 0.768424
vt 0.625000 0.785652
vt 0.541667 0.785652
vt 0.660652 0.750000
vt 0.875000 0.500000
vt 0.125000 0.750000
vt 0.339348 0.750000
vt 0.148250 0.750000
vt 0.541667 0.785652
vt 0.625000 0.785652
vt 0.625000 0.976750
vt 0.541667 0.976750
vt 0.458333 0.976750
vt 0.375000 0.976750
vt 0.375000 0.976750
vt 0.458333 0.976750
vt 0.851750 0.750000
vt 0.660652 0.750000
vt 0.541667 0.203313
vt 0.625000 0.203313
vt 0.625000 0.250000
vt 0.541667 0.250000
vt 0.541667 0.025262
vt 0.625000 0.025262
vt 0.625000 0.044747
vt 0.541667 0.044747
vt 0.541667 0.142028
vt 0.625000 0.142028
vt 0.875000 0.546687
vt 0.875000 0.607972
vt 0.125000 0.607972
vt 0.875000 0.500000
vt 0.125000 0.546687
vt 0.125000 0.500000
vt 0.541667 0.546687
vt 0.458333 0.607972
vt 0.375000 0.044747
vt 0.458333 0.044747
vt 0.458333 0.142028
vt 0.375000 0.142028
vt 0.375000 0.025262
vt 0.458333 0.025262
vt 0.458333 0.025262
vt 0.375000 0.025262
vt 0.458333 0.203313
vt 0.375000 0.203313
vt 0.458333 0.203313
vt 0.541667 0.203313
vt 0.375000 0.785652
vt 0.458333 0.785652
vt 0.458333 0.785652
vt 0.375000 0.785652
vt 0.375000 0.250000
vt 0.458333 0.250000
vt 0.458333 0.273250
vt 0.375000 0.273250
vt 0.458333 0.464348
vt 0.375000 0.464348
vt 0.458333 0.750000
vt 0.458333 0.705253
vt 0.458333 0.724738
vt 0.458333 0.481576
vt 0.375000 0.481576
vt 0.458333 0.500000
vt 0.375000 0.025262
vt 0.458333 0.025262
vt 0.541667 0.250000
vt 0.625000 0.250000
vt 0.458333 0.705253
vt 0.375000 0.000000
vt 0.458333 0.000000
vt 0.458333 1.000000
vt 0.375000 1.000000
vt 0.458333 0.142028
vt 0.541667 0.142028
vn 0.0000 1.0000 0.0000
vn 0.0078 0.0000 1.0000
vn -0.9996 -0.0287 -0.0024
vn 0.0000 -1.0000 0.0000
vn -1.0000 0.0000 0.0075
vn -0.0077 0.0000 -1.0000
vn 0.0006 0.0000 -1.0000
vn -1.0000 0.0000 -0.0024
vn 1.0000 0.0000 0.0048
vn -0.9996 0.0287 -0.0024
vn 0.0024 0.0000 -1.0000
vn 0.1869 0.0000 -0.9824
vn -0.1869 0.0000 0.9824
vn 1.0000 0.0000 -0.0075
vn -0.0014 0.0000 -1.0000
vn 0.0014 0.0000 1.0000
vn -1.0000 0.0000 0.0078
vn 1.0000 0.0000 -0.0078
vn -0.0006 0.0000 1.0000
vn 0.0089 0.0000 1.0000
vn -0.9258 0.0000 0.3780
vn 0.9308 0.0000 0.3656
vn -0.0024 0.0000 1.0000
vn -0.1868 -0.0000 0.9824
usemtl Material
s off
f 84/1/1 15/2/1 7/3/1 76/4/1
f 159/5/2 76/6/2 7/7/2 114/8/2
f 6/9/3 23/10/3 32/11/3 26/12/3
f 45/13/4 16/14/4 4/15/4 41/16/4
f 4/15/4 16/14/4 59/17/4 56/18/4
f 115/19/5 5/20/5 12/21/5 119/22/5
f 137/23/6 44/24/6 11/25/6 117/26/6
f 75/27/4 6/9/4 10/28/4 77/29/4
f 42/30/1 1/31/1 11/25/1 44/32/1
f 1/31/1 24/33/1 38/34/1 33/35/1
f 123/36/7 20/37/7 58/38/7 149/39/7
f 48/40/4 18/41/4 16/14/4 45/13/4
f 114/42/8 7/43/8 15/44/8 121/45/8
f 85/46/1 17/47/1 15/2/1 84/1/1
f 110/48/1 101/49/1 17/47/1 85/46/1
f 105/50/4 102/51/4 18/41/4 48/40/4
f 175/52/9 100/53/9 20/37/9 123/36/9
f 19/54/3 13/55/3 29/56/3 28/57/3
f 11/25/1 1/31/1 33/35/1 36/58/1
f 39/59/4 2/60/4 22/61/4 49/62/4
f 82/63/1 5/64/1 21/65/1 86/66/1
f 21/65/10 5/64/10 25/67/10 27/68/10
f 128/69/11 26/70/11 92/71/11 166/72/11
f 28/57/4 29/56/4 95/73/4 94/74/4
f 30/75/1 31/76/1 97/77/1 96/78/1
f 116/79/12 6/80/12 26/70/12 128/69/12
f 101/49/10 21/65/10 27/68/10 104/81/10
f 99/82/3 19/54/3 28/57/3 103/83/3
f 15/2/10 17/47/10 31/76/10 30/75/10
f 121/45/13 15/44/13 30/84/13 129/85/13
f 132/86/14 34/87/14 37/88/14 134/89/14
f 131/90/9 33/35/9 38/34/9 135/91/9
f 117/26/15 11/25/15 36/58/15 133/92/15
f 22/61/4 2/60/4 34/87/4 35/93/4
f 126/94/16 22/61/16 35/93/16 136/95/16
f 2/60/4 9/96/4 37/88/4 34/87/4
f 1/31/1 42/30/1 50/97/1 24/33/1
f 63/98/4 39/59/4 49/62/4 68/99/4
f 107/100/4 105/50/4 48/40/4 67/101/4
f 100/53/1 106/102/1 47/103/1 20/37/1
f 20/37/1 47/103/1 46/104/1 14/105/1
f 67/101/4 48/40/4 45/13/4 66/106/4
f 70/107/1 42/30/1 44/32/1 71/108/1
f 2/60/4 39/59/4 43/109/4 9/96/4
f 153/110/6 71/111/6 44/24/6 137/23/6
f 66/106/4 45/13/4 41/16/4 69/112/4
f 41/16/4 4/15/4 52/113/4 53/114/4
f 14/105/1 46/104/1 40/115/1 3/116/1
f 141/117/2 51/118/2 54/119/2 143/120/2
f 140/121/17 41/122/17 53/123/17 144/124/17
f 52/113/4 4/15/4 56/18/4 62/125/4
f 3/116/1 40/115/1 54/126/1 51/118/1
f 147/127/9 57/128/9 55/129/9 145/130/9
f 149/39/9 58/38/9 57/128/9 147/127/9
f 145/130/18 55/129/18 61/131/18 151/132/18
f 20/37/1 14/105/1 57/128/1 58/38/1
f 142/133/19 52/113/19 62/125/19 152/134/19
f 3/116/1 51/118/1 61/131/1 55/129/1
f 14/105/1 3/116/1 55/129/1 57/128/1
f 16/14/4 18/41/4 60/135/4 59/17/4
f 78/136/4 66/106/4 69/112/4 81/137/4
f 157/138/6 83/139/6 71/111/6 153/110/6
f 82/63/1 70/107/1 71/108/1 83/140/1
f 79/141/4 67/101/4 66/106/4 78/136/4
f 109/142/4 107/100/4 67/101/4 79/141/4
f 75/27/4 63/98/4 68/99/4 80/143/4
f 42/30/1 70/107/1 74/144/1 50/97/1
f 106/102/1 108/145/1 73/146/1 47/103/1
f 47/103/1 73/146/1 72/147/1 46/104/1
f 39/59/4 63/98/4 65/148/4 43/109/4
f 139/149/2 40/150/2 64/151/2 155/152/2
f 46/104/1 72/147/1 64/153/1 40/115/1
f 6/9/4 75/27/4 80/143/4 23/10/4
f 99/82/4 109/142/4 79/141/4 19/54/4
f 19/54/4 79/141/4 78/136/4 13/55/4
f 5/64/1 82/63/1 83/140/1 12/154/1
f 119/22/6 12/21/6 83/139/6 157/138/6
f 13/55/4 78/136/4 81/137/4 8/155/4
f 70/107/1 82/63/1 86/66/1 74/144/1
f 108/145/1 110/48/1 85/46/1 73/146/1
f 73/146/1 85/46/1 84/1/1 72/147/1
f 63/98/4 75/27/4 77/29/4 65/148/4
f 81/137/4 69/112/4 88/156/4 87/157/4
f 72/147/1 84/1/1 76/4/1 64/153/1
f 161/158/20 89/159/20 90/160/20 163/161/20
f 160/162/21 81/163/21 87/164/21 164/165/21
f 155/152/22 64/151/22 89/159/22 161/158/22
f 64/153/1 76/4/1 90/166/1 89/167/1
f 171/168/8 93/169/8 91/170/8 165/171/8
f 167/172/8 96/173/8 97/174/8 169/175/8
f 173/176/8 112/177/8 93/169/8 171/168/8
f 104/81/1 27/68/1 93/178/1 112/179/1
f 103/83/4 28/57/4 94/74/4 111/180/4
f 129/85/23 30/84/23 96/173/23 167/172/23
f 27/68/1 25/67/1 91/181/1 93/178/1
f 26/12/4 32/11/4 98/182/4 92/183/4
f 32/11/4 103/83/4 111/180/4 98/182/4
f 31/76/1 104/81/1 112/179/1 97/77/1
f 169/175/8 97/174/8 112/177/8 173/176/8
f 74/144/1 86/66/1 110/48/1 108/145/1
f 23/10/4 80/143/4 109/142/4 99/82/4
f 50/97/1 74/144/1 108/145/1 106/102/1
f 80/143/4 68/99/4 107/100/4 109/142/4
f 24/33/1 50/97/1 106/102/1 100/53/1
f 68/99/4 49/62/4 105/50/4 107/100/4
f 23/10/3 99/82/3 103/83/3 32/11/3
f 17/47/10 101/49/10 104/81/10 31/76/10
f 125/184/9 24/33/9 100/53/9 175/52/9
f 49/62/4 22/61/4 102/51/4 105/50/4
f 86/66/1 21/65/1 101/49/1 110/48/1
f 22/61/9 126/94/9 176/185/9 102/51/9
f 126/94/9 125/184/9 175/52/9 176/185/9
f 94/186/8 170/187/8 174/188/8 111/189/8
f 170/187/8 169/175/8 173/176/8 174/188/8
f 29/190/23 130/191/23 168/192/23 95/193/23
f 130/191/23 129/85/23 167/172/23 168/192/23
f 111/189/8 174/188/8 172/194/8 98/195/8
f 171/168/23 172/194/23 178/196/23 177/197/23
f 95/193/8 168/192/8 170/187/8 94/186/8
f 168/192/8 167/172/8 169/175/8 170/187/8
f 98/195/8 172/194/8 166/72/8 92/71/8
f 172/194/8 171/168/8 165/171/8 166/72/8
f 69/198/22 156/199/22 162/200/22 88/201/22
f 156/199/22 155/152/22 161/158/22 162/200/22
f 76/6/21 159/5/21 163/161/21 90/160/21
f 159/5/21 160/162/21 164/165/21 163/161/21
f 88/201/20 162/200/20 164/165/20 87/164/20
f 162/200/20 161/158/20 163/161/20 164/165/20
f 10/202/6 120/203/6 158/204/6 77/205/6
f 120/203/6 119/22/6 157/138/6 158/204/6
f 41/122/2 140/121/2 156/199/2 69/198/2
f 140/121/2 139/149/2 155/152/2 156/199/2
f 77/205/6 158/204/6 154/206/6 65/207/6
f 158/204/6 157/138/6 153/110/6 154/206/6
f 51/118/19 141/117/19 151/132/19 61/131/19
f 141/117/19 142/133/19 152/134/19 151/132/19
f 56/18/18 146/208/18 152/134/18 62/125/18
f 146/208/18 145/130/18 151/132/18 152/134/18
f 60/135/9 150/209/9 148/210/9 59/17/9
f 150/209/9 149/39/9 147/127/9 148/210/9
f 59/17/9 148/210/9 146/208/9 56/18/9
f 148/210/9 147/127/9 145/130/9 146/208/9
f 40/150/17 139/149/17 143/120/17 54/119/17
f 139/149/17 140/121/17 144/124/17 143/120/17
f 52/113/2 142/133/2 144/124/2 53/123/2
f 142/133/2 141/117/2 143/120/2 144/124/2
f 65/207/6 154/206/6 138/211/6 43/212/6
f 154/206/6 153/110/6 137/23/6 138/211/6
f 24/33/16 125/184/16 135/91/16 38/34/16
f 125/184/16 126/94/16 136/95/16 135/91/16
f 9/96/15 118/213/15 134/89/15 37/88/15
f 118/213/15 117/26/15 133/92/15 134/89/15
f 34/87/9 132/86/9 136/95/9 35/93/9
f 132/86/9 131/90/9 135/91/9 136/95/9
f 33/35/14 131/90/14 133/92/14 36/58/14
f 131/90/14 132/86/14 134/89/14 133/92/14
f 13/214/24 122/215/24 130/191/24 29/190/24
f 122/215/24 121/45/24 129/85/24 130/191/24
f 5/20/12 115/19/12 127/216/12 25/217/12
f 115/19/12 116/79/12 128/69/12 127/216/12
f 25/217/11 127/216/11 165/171/11 91/170/11
f 127/216/11 128/69/11 166/72/11 165/171/11
f 102/51/9 176/185/9 124/218/9 18/41/9
f 176/185/9 175/52/9 123/36/9 124/218/9
f 8/219/8 113/220/8 122/215/8 13/214/8
f 113/220/8 114/42/8 121/45/8 122/215/8
f 18/41/7 124/218/7 150/209/7 60/135/7
f 124/218/7 123/36/7 149/39/7 150/209/7
f 43/212/6 138/211/6 118/213/6 9/96/6
f 138/211/6 137/23/6 117/26/6 118/213/6
f 6/80/5 116/79/5 120/203/5 10/202/5
f 116/79/5 115/19/5 119/22/5 120/203/5
f 81/163/2 160/162/2 113/221/2 8/222/2
f 160/162/2 159/5/2 114/8/2 113/221/2
f 180/223/8 179/224/8 177/197/8 178/196/8
f 172/194/1 174/188/1 180/223/1 178/196/1
f 173/176/4 171/168/4 177/197/4 179/224/4
f 174/188/11 173/176/11 179/224/11 180/223/11
