# Blender v2.82 (sub 7) OBJ File: 'LED_Lamp.blend'
# www.blender.org
mtllib LED_Lamp_Socket.mtl
o Cylinder.001_Cylinder.002
v 0.000000 0.674408 1.359893
v 0.000000 0.674408 2.595456
v 0.131570 0.661449 1.359893
v 0.131570 0.661449 2.595456
v 0.258085 0.623071 1.359893
v 0.258085 0.623071 2.595456
v 0.374681 0.560750 1.359893
v 0.374681 0.560750 2.595456
v 0.476878 0.476878 1.359893
v 0.476878 0.476878 2.595456
v 0.560750 0.374681 1.359893
v 0.560750 0.374681 2.595456
v 0.623071 0.258085 1.359893
v 0.623071 0.258085 2.595456
v 0.661449 0.131570 1.359893
v 0.661449 0.131570 2.595456
v 0.674408 0.000000 1.359893
v 0.674408 0.000000 2.595456
v 0.661449 -0.131570 1.359893
v 0.661449 -0.131570 2.595456
v 0.623071 -0.258085 1.359893
v 0.623071 -0.258085 2.595456
v 0.560750 -0.374681 1.359893
v 0.560750 -0.374681 2.595456
v 0.476878 -0.476878 1.359893
v 0.476878 -0.476878 2.595456
v 0.374681 -0.560750 1.359893
v 0.374681 -0.560750 2.595456
v 0.258085 -0.623072 1.359893
v 0.258085 -0.623072 2.595456
v 0.131570 -0.661449 1.359893
v 0.131570 -0.661449 2.595456
v -0.000000 -0.674408 1.359893
v -0.000000 -0.674408 2.595456
v -0.131571 -0.661449 1.359893
v -0.131571 -0.661449 2.595456
v -0.258085 -0.623071 1.359893
v -0.258085 -0.623071 2.595456
v -0.374681 -0.560749 1.359893
v -0.374681 -0.560749 2.595456
v -0.476879 -0.476878 1.359893
v -0.476879 -0.476878 2.595456
v -0.560750 -0.374680 1.359893
v -0.560750 -0.374680 2.595456
v -0.623072 -0.258084 1.359893
v -0.623072 -0.258084 2.595456
v -0.661449 -0.131570 1.359893
v -0.661449 -0.131570 2.595456
v -0.674408 0.000001 1.359893
v -0.674408 0.000001 2.595456
v -0.661449 0.131571 1.359893
v -0.661449 0.131571 2.595456
v -0.623071 0.258085 1.359893
v -0.623071 0.258085 2.595456
v -0.560749 0.374682 1.359893
v -0.560749 0.374682 2.595456
v -0.476878 0.476879 1.359893
v -0.476878 0.476879 2.595456
v -0.374680 0.560750 1.359893
v -0.374680 0.560750 2.595456
v -0.258084 0.623072 1.359893
v -0.258084 0.623072 2.595456
v -0.131569 0.661449 1.359893
v -0.131569 0.661449 2.595456
v 0.107417 0.540020 2.741280
v 0.000000 0.550599 2.741280
v 0.210705 0.508688 2.741280
v 0.305897 0.457807 2.741280
v 0.389333 0.389333 2.741280
v 0.457807 0.305897 2.741280
v 0.508688 0.210705 2.741280
v 0.540020 0.107417 2.741280
v 0.550600 0.000000 2.741280
v 0.540020 -0.107417 2.741280
v 0.508688 -0.210705 2.741280
v 0.457807 -0.305897 2.741280
v 0.389333 -0.389333 2.741280
v 0.305897 -0.457807 2.741280
v 0.210705 -0.508688 2.741280
v 0.107417 -0.540020 2.741280
v -0.000000 -0.550600 2.741280
v -0.107417 -0.540020 2.741280
v -0.210706 -0.508687 2.741280
v -0.305897 -0.457807 2.741280
v -0.389333 -0.389332 2.741280
v -0.457807 -0.305896 2.741280
v -0.508688 -0.210705 2.741280
v -0.540020 -0.107416 2.741280
v -0.550599 0.000001 2.741280
v -0.540020 0.107417 2.741280
v -0.508687 0.210706 2.741280
v -0.457806 0.305897 2.741280
v -0.389332 0.389333 2.741280
v -0.305896 0.457807 2.741280
v -0.210705 0.508688 2.741280
v -0.107416 0.540020 2.741280
v 0.028273 0.142137 2.912074
v 0.000000 0.144922 2.912074
v 0.055459 0.133890 2.912074
v 0.080514 0.120498 2.912074
v 0.102475 0.102475 2.912074
v 0.120498 0.080514 2.912074
v 0.133890 0.055459 2.912074
v 0.142137 0.028273 2.912074
v 0.144922 0.000000 2.912074
v 0.142137 -0.028273 2.912074
v 0.133890 -0.055459 2.912074
v 0.120498 -0.080514 2.912074
v 0.102475 -0.102475 2.912074
v 0.080514 -0.120498 2.912074
v 0.055459 -0.133890 2.912074
v 0.028273 -0.142137 2.912074
v -0.000000 -0.144921 2.912074
v -0.028273 -0.142137 2.912074
v -0.055459 -0.133890 2.912074
v -0.080514 -0.120498 2.912074
v -0.102475 -0.102475 2.912074
v -0.120498 -0.080514 2.912074
v -0.133890 -0.055459 2.912074
v -0.142137 -0.028273 2.912074
v -0.144921 0.000000 2.912074
v -0.142137 0.028273 2.912074
v -0.133890 0.055459 2.912074
v -0.120498 0.080514 2.912074
v -0.102475 0.102475 2.912074
v -0.080514 0.120498 2.912074
v -0.055459 0.133890 2.912074
v -0.028273 0.142137 2.912074
v 0.028273 0.142137 3.394104
v -0.000000 0.144922 3.394104
v 0.055459 0.133890 3.394104
v 0.080514 0.120498 3.394104
v 0.102475 0.102475 3.394104
v 0.120498 0.080514 3.394104
v 0.133890 0.055459 3.394104
v 0.142137 0.028273 3.394104
v 0.144921 0.000000 3.394104
v 0.142137 -0.028273 3.394104
v 0.133890 -0.055459 3.394104
v 0.120498 -0.080514 3.394104
v 0.102475 -0.102475 3.394104
v 0.080514 -0.120498 3.394104
v 0.055459 -0.133890 3.394104
v 0.028273 -0.142137 3.394104
v -0.000000 -0.144921 3.394104
v -0.028273 -0.142137 3.394104
v -0.055459 -0.133890 3.394104
v -0.080514 -0.120498 3.394104
v -0.102475 -0.102475 3.394104
v -0.120498 -0.080514 3.394104
v -0.133890 -0.055459 3.394104
v -0.142137 -0.028273 3.394104
v -0.144922 0.000000 3.394104
v -0.142137 0.028273 3.394104
v -0.133890 0.055459 3.394104
v -0.120498 0.080514 3.394104
v -0.102475 0.102475 3.394104
v -0.080514 0.120498 3.394104
v -0.055459 0.133890 3.394104
v -0.028273 0.142137 3.394104
v 0.000000 0.536103 1.359893
v 0.104588 0.525802 1.359893
v 0.205158 0.495294 1.359893
v 0.297843 0.445753 1.359893
v 0.379082 0.379082 1.359893
v 0.445753 0.297843 1.359893
v 0.495294 0.205158 1.359893
v 0.525802 0.104589 1.359893
v 0.536103 0.000000 1.359893
v 0.525802 -0.104588 1.359893
v 0.495294 -0.205157 1.359893
v 0.445753 -0.297843 1.359893
v 0.379082 -0.379082 1.359893
v 0.297843 -0.445753 1.359893
v 0.205158 -0.495294 1.359893
v 0.104588 -0.525802 1.359893
v -0.000000 -0.536103 1.359893
v -0.104589 -0.525802 1.359893
v -0.205158 -0.495294 1.359893
v -0.297843 -0.445753 1.359893
v -0.379082 -0.379082 1.359893
v -0.445753 -0.297842 1.359893
v -0.495295 -0.205157 1.359893
v -0.525802 -0.104588 1.359893
v -0.536103 0.000001 1.359893
v -0.525802 0.104589 1.359893
v -0.495294 0.205158 1.359893
v -0.445753 0.297843 1.359893
v -0.379081 0.379082 1.359893
v -0.297842 0.445754 1.359893
v -0.205157 0.495295 1.359893
v -0.104588 0.525802 1.359893
v 0.000000 0.536103 2.378817
v 0.104589 0.525802 2.378817
v 0.205158 0.495294 2.378817
v 0.297843 0.445753 2.378817
v 0.379082 0.379082 2.378817
v 0.445753 0.297843 2.378817
v 0.495294 0.205158 2.378817
v 0.525802 0.104589 2.378817
v 0.536103 0.000000 2.378817
v 0.525802 -0.104588 2.378817
v 0.495294 -0.205158 2.378817
v 0.445753 -0.297843 2.378817
v 0.379082 -0.379082 2.378817
v 0.297843 -0.445753 2.378817
v 0.205158 -0.495294 2.378817
v 0.104588 -0.525802 2.378817
v -0.000000 -0.536103 2.378817
v -0.104589 -0.525802 2.378817
v -0.205158 -0.495294 2.378817
v -0.297843 -0.445753 2.378817
v -0.379082 -0.379082 2.378817
v -0.445753 -0.297842 2.378817
v -0.495295 -0.205157 2.378817
v -0.525802 -0.104588 2.378817
v -0.536103 0.000001 2.378817
v -0.525802 0.104589 2.378817
v -0.495294 0.205158 2.378817
v -0.445753 0.297843 2.378817
v -0.379081 0.379082 2.378817
v -0.297842 0.445754 2.378817
v -0.205157 0.495295 2.378817
v -0.104588 0.525802 2.378817
vt 1.000000 0.500000
vt 1.000000 1.000000
vt 0.968750 1.000000
vt 0.968750 0.500000
vt 0.937500 1.000000
vt 0.937500 0.500000
vt 0.906250 1.000000
vt 0.906250 0.500000
vt 0.875000 1.000000
vt 0.875000 0.500000
vt 0.843750 1.000000
vt 0.843750 0.500000
vt 0.812500 1.000000
vt 0.812500 0.500000
vt 0.781250 1.000000
vt 0.781250 0.500000
vt 0.750000 1.000000
vt 0.750000 0.500000
vt 0.718750 1.000000
vt 0.718750 0.500000
vt 0.687500 1.000000
vt 0.687500 0.500000
vt 0.656250 1.000000
vt 0.656250 0.500000
vt 0.625000 1.000000
vt 0.625000 0.500000
vt 0.593750 1.000000
vt 0.593750 0.500000
vt 0.562500 1.000000
vt 0.562500 0.500000
vt 0.531250 1.000000
vt 0.531250 0.500000
vt 0.500000 1.000000
vt 0.500000 0.500000
vt 0.468750 1.000000
vt 0.468750 0.500000
vt 0.437500 1.000000
vt 0.437500 0.500000
vt 0.406250 1.000000
vt 0.406250 0.500000
vt 0.375000 1.000000
vt 0.375000 0.500000
vt 0.343750 1.000000
vt 0.343750 0.500000
vt 0.312500 1.000000
vt 0.312500 0.500000
vt 0.281250 1.000000
vt 0.281250 0.500000
vt 0.250000 1.000000
vt 0.250000 0.500000
vt 0.218750 1.000000
vt 0.218750 0.500000
vt 0.187500 1.000000
vt 0.187500 0.500000
vt 0.156250 1.000000
vt 0.156250 0.500000
vt 0.125000 1.000000
vt 0.125000 0.500000
vt 0.093750 1.000000
vt 0.093750 0.500000
vt 0.062500 1.000000
vt 0.062500 0.500000
vt 0.843750 1.000000
vt 0.812500 1.000000
vt 0.031250 1.000000
vt 0.031250 0.500000
vt 0.000000 1.000000
vt 0.000000 0.500000
vt 0.937500 0.500000
vt 0.968750 0.500000
vt 0.937500 1.000000
vt 0.968750 1.000000
vt 0.968750 1.000000
vt 0.937500 1.000000
vt 0.562500 1.000000
vt 0.531250 1.000000
vt 0.281250 1.000000
vt 0.250000 1.000000
vt 0.687500 1.000000
vt 0.656250 1.000000
vt 0.406250 1.000000
vt 0.375000 1.000000
vt 0.125000 1.000000
vt 0.093750 1.000000
vt 0.781250 1.000000
vt 0.500000 1.000000
vt 0.218750 1.000000
vt 0.906250 1.000000
vt 0.625000 1.000000
vt 0.343750 1.000000
vt 0.062500 1.000000
vt 0.750000 1.000000
vt 0.468750 1.000000
vt 0.187500 1.000000
vt 0.875000 1.000000
vt 0.593750 1.000000
vt 0.312500 1.000000
vt 0.031250 1.000000
vt 0.718750 1.000000
vt 0.437500 1.000000
vt 0.156250 1.000000
vt 1.000000 1.000000
vt 0.000000 1.000000
vt 0.843750 1.000000
vt 0.875000 1.000000
vt 0.875000 1.000000
vt 0.843750 1.000000
vt 0.125000 1.000000
vt 0.093750 1.000000
vt 0.531250 1.000000
vt 0.500000 1.000000
vt 0.906250 1.000000
vt 0.062500 1.000000
vt 0.468750 1.000000
vt 0.031250 1.000000
vt 0.437500 1.000000
vt 0.000000 1.000000
vt 0.406250 1.000000
vt 0.812500 1.000000
vt 0.375000 1.000000
vt 0.781250 1.000000
vt 0.343750 1.000000
vt 0.750000 1.000000
vt 0.312500 1.000000
vt 0.718750 1.000000
vt 0.281250 1.000000
vt 0.687500 1.000000
vt 0.250000 1.000000
vt 0.656250 1.000000
vt 0.218750 1.000000
vt 0.625000 1.000000
vt 0.187500 1.000000
vt 0.593750 1.000000
vt 0.156250 1.000000
vt 0.562500 1.000000
vt 1.000000 1.000000
vt 0.296822 0.485388
vt 0.250000 0.490000
vt 0.203179 0.485389
vt 0.158156 0.471731
vt 0.116663 0.449553
vt 0.080295 0.419706
vt 0.050447 0.383337
vt 0.028269 0.341844
vt 0.014612 0.296822
vt 0.010000 0.250000
vt 0.014611 0.203179
vt 0.028269 0.158156
vt 0.050447 0.116663
vt 0.080294 0.080294
vt 0.116663 0.050447
vt 0.158156 0.028269
vt 0.203178 0.014612
vt 0.250000 0.010000
vt 0.296822 0.014612
vt 0.341844 0.028269
vt 0.383337 0.050447
vt 0.419706 0.080294
vt 0.449553 0.116663
vt 0.471731 0.158156
vt 0.485388 0.203178
vt 0.490000 0.250000
vt 0.485388 0.296822
vt 0.471731 0.341844
vt 0.449553 0.383337
vt 0.419706 0.419706
vt 0.383337 0.449553
vt 0.341844 0.471731
vt 0.031250 1.000000
vt 0.000000 1.000000
vt 0.437500 1.000000
vt 0.406250 1.000000
vt 0.812500 1.000000
vt 0.375000 1.000000
vt 0.781250 1.000000
vt 0.343750 1.000000
vt 0.750000 1.000000
vt 0.312500 1.000000
vt 0.718750 1.000000
vt 0.281250 1.000000
vt 0.687500 1.000000
vt 0.250000 1.000000
vt 0.656250 1.000000
vt 0.218750 1.000000
vt 0.625000 1.000000
vt 0.187500 1.000000
vt 0.593750 1.000000
vt 0.156250 1.000000
vt 0.562500 1.000000
vt 1.000000 1.000000
vt 0.968750 1.000000
vt 0.125000 1.000000
vt 0.531250 1.000000
vt 0.937500 1.000000
vt 0.093750 1.000000
vt 0.500000 1.000000
vt 0.906250 1.000000
vt 0.062500 1.000000
vt 0.468750 1.000000
vt 0.250000 0.500000
vt 0.218750 0.500000
vt 0.218750 0.500000
vt 0.250000 0.500000
vt 0.656250 0.500000
vt 0.687500 0.500000
vt 0.375000 0.500000
vt 0.406250 0.500000
vt 0.093750 0.500000
vt 0.125000 0.500000
vt 0.781250 0.500000
vt 0.812500 0.500000
vt 0.500000 0.500000
vt 0.531250 0.500000
vt 0.906250 0.500000
vt 0.625000 0.500000
vt 0.343750 0.500000
vt 0.062500 0.500000
vt 0.750000 0.500000
vt 0.468750 0.500000
vt 0.187500 0.500000
vt 0.875000 0.500000
vt 0.593750 0.500000
vt 0.312500 0.500000
vt 0.031250 0.500000
vt 0.718750 0.500000
vt 0.437500 0.500000
vt 0.156250 0.500000
vt 0.843750 0.500000
vt 0.562500 0.500000
vt 0.281250 0.500000
vt 1.000000 0.500000
vt 0.000000 0.500000
vt 0.750000 0.490000
vt 0.796822 0.485388
vt 0.841844 0.471731
vt 0.883337 0.449553
vt 0.919706 0.419706
vt 0.949553 0.383337
vt 0.971731 0.341844
vt 0.985388 0.296822
vt 0.990000 0.250000
vt 0.985388 0.203178
vt 0.971731 0.158156
vt 0.949553 0.116663
vt 0.919706 0.080294
vt 0.883337 0.050447
vt 0.841844 0.028269
vt 0.796822 0.014612
vt 0.750000 0.010000
vt 0.703178 0.014612
vt 0.658156 0.028269
vt 0.616663 0.050447
vt 0.580294 0.080294
vt 0.550447 0.116663
vt 0.528269 0.158156
vt 0.514611 0.203179
vt 0.510000 0.250000
vt 0.514612 0.296822
vt 0.528269 0.341844
vt 0.550447 0.383337
vt 0.580295 0.419706
vt 0.616663 0.449553
vt 0.658156 0.471731
vt 0.703179 0.485389
vt 0.625000 0.500000
vt 0.656250 0.500000
vt 0.187500 0.500000
vt 0.593750 0.500000
vt 0.156250 0.500000
vt 0.562500 0.500000
vt 0.968750 0.500000
vt 1.000000 0.500000
vt 0.125000 0.500000
vt 0.531250 0.500000
vt 0.937500 0.500000
vt 0.093750 0.500000
vt 0.500000 0.500000
vt 0.906250 0.500000
vt 0.062500 0.500000
vt 0.468750 0.500000
vt 0.875000 0.500000
vt 0.031250 0.500000
vt 0.437500 0.500000
vt 0.843750 0.500000
vt 0.000000 0.500000
vt 0.406250 0.500000
vt 0.812500 0.500000
vt 0.375000 0.500000
vt 0.781250 0.500000
vt 0.343750 0.500000
vt 0.750000 0.500000
vt 0.312500 0.500000
vt 0.718750 0.500000
vt 0.281250 0.500000
vt 0.687500 0.500000
vn 0.0980 0.9952 0.0000
vn 0.2903 0.9569 0.0000
vn 0.4714 0.8819 0.0000
vn 0.6344 0.7730 0.0000
vn 0.7730 0.6344 0.0000
vn 0.8819 0.4714 0.0000
vn 0.9569 0.2903 0.0000
vn 0.9952 0.0980 0.0000
vn 0.9952 -0.0980 -0.0000
vn 0.9569 -0.2903 -0.0000
vn 0.8819 -0.4714 -0.0000
vn 0.7730 -0.6344 -0.0000
vn 0.6344 -0.7730 -0.0000
vn 0.4714 -0.8819 0.0000
vn 0.2903 -0.9569 0.0000
vn 0.0980 -0.9952 0.0000
vn -0.0980 -0.9952 0.0000
vn -0.2903 -0.9569 0.0000
vn -0.4714 -0.8819 0.0000
vn -0.6344 -0.7730 0.0000
vn -0.7730 -0.6344 -0.0000
vn -0.8819 -0.4714 -0.0000
vn -0.9569 -0.2903 -0.0000
vn -0.9952 -0.0980 -0.0000
vn -0.9952 0.0980 0.0000
vn -0.9569 0.2903 0.0000
vn -0.8819 0.4714 0.0000
vn -0.7730 0.6344 0.0000
vn -0.6344 0.7730 0.0000
vn -0.4714 0.8819 0.0000
vn 0.6736 0.3601 0.6454
vn -0.2903 0.9569 0.0000
vn -0.0980 0.9952 0.0000
vn -0.0000 -0.0000 -1.0000
vn 0.1131 0.3728 0.9210
vn 0.2217 -0.7310 0.6454
vn -0.7602 -0.0749 0.6454
vn 0.2217 0.7310 0.6454
vn 0.6736 -0.3601 0.6454
vn -0.4846 -0.5905 0.6454
vn -0.4846 0.5905 0.6454
vn 0.7310 0.2217 0.6454
vn 0.0749 -0.7602 0.6454
vn -0.7602 0.0749 0.6454
vn 0.3601 0.6736 0.6454
vn 0.5905 -0.4846 0.6454
vn -0.5905 -0.4846 0.6454
vn -0.3601 0.6737 0.6454
vn 0.7602 0.0749 0.6454
vn -0.0749 -0.7602 0.6454
vn -0.7310 0.2217 0.6454
vn 0.4846 0.5905 0.6454
vn 0.4846 -0.5905 0.6454
vn -0.6736 -0.3601 0.6454
vn -0.2217 0.7310 0.6454
vn 0.7602 -0.0749 0.6454
vn -0.2217 -0.7310 0.6454
vn -0.6736 0.3601 0.6454
vn 0.5905 0.4846 0.6454
vn 0.3601 -0.6736 0.6454
vn -0.7310 -0.2217 0.6454
vn 0.0749 0.7602 0.6454
vn -0.0749 0.7602 0.6454
vn 0.7310 -0.2217 0.6454
vn -0.3601 -0.6736 0.6454
vn -0.5905 0.4846 0.6454
vn -0.2472 0.3012 0.9210
vn 0.0382 -0.3877 0.9210
vn 0.1837 0.3436 0.9210
vn -0.1837 0.3436 0.9210
vn -0.0382 -0.3877 0.9210
vn 0.2472 0.3012 0.9210
vn -0.1131 0.3728 0.9210
vn -0.1131 -0.3728 0.9210
vn 0.3012 0.2472 0.9210
vn -0.0382 0.3877 0.9210
vn -0.1837 -0.3436 0.9210
vn 0.3436 0.1837 0.9210
vn -0.2472 -0.3012 0.9210
vn 0.3728 0.1131 0.9210
vn -0.3012 -0.2472 0.9210
vn 0.3877 0.0382 0.9210
vn -0.3436 -0.1837 0.9210
vn 0.3877 -0.0382 0.9210
vn -0.3728 -0.1131 0.9210
vn 0.3728 -0.1131 0.9210
vn -0.3877 -0.0382 0.9210
vn 0.3436 -0.1837 0.9210
vn -0.3877 0.0382 0.9210
vn 0.3012 -0.2472 0.9210
vn -0.3728 0.1131 0.9210
vn 0.2472 -0.3012 0.9210
vn -0.3436 0.1837 0.9210
vn 0.1837 -0.3436 0.9210
vn 0.0382 0.3877 0.9210
vn -0.3012 0.2472 0.9210
vn 0.1131 -0.3728 0.9210
vn -0.0000 0.0000 1.0000
usemtl None
s off
f 1/1/1 2/2/1 4/3/1 3/4/1
f 3/4/2 4/3/2 6/5/2 5/6/2
f 5/6/3 6/5/3 8/7/3 7/8/3
f 7/8/4 8/7/4 10/9/4 9/10/4
f 9/10/5 10/9/5 12/11/5 11/12/5
f 11/12/6 12/11/6 14/13/6 13/14/6
f 13/14/7 14/13/7 16/15/7 15/16/7
f 15/16/8 16/15/8 18/17/8 17/18/8
f 17/18/9 18/17/9 20/19/9 19/20/9
f 19/20/10 20/19/10 22/21/10 21/22/10
f 21/22/11 22/21/11 24/23/11 23/24/11
f 23/24/12 24/23/12 26/25/12 25/26/12
f 25/26/13 26/25/13 28/27/13 27/28/13
f 27/28/14 28/27/14 30/29/14 29/30/14
f 29/30/15 30/29/15 32/31/15 31/32/15
f 31/32/16 32/31/16 34/33/16 33/34/16
f 33/34/17 34/33/17 36/35/17 35/36/17
f 35/36/18 36/35/18 38/37/18 37/38/18
f 37/38/19 38/37/19 40/39/19 39/40/19
f 39/40/20 40/39/20 42/41/20 41/42/20
f 41/42/21 42/41/21 44/43/21 43/44/21
f 43/44/22 44/43/22 46/45/22 45/46/22
f 45/46/23 46/45/23 48/47/23 47/48/23
f 47/48/24 48/47/24 50/49/24 49/50/24
f 49/50/25 50/49/25 52/51/25 51/52/25
f 51/52/26 52/51/26 54/53/26 53/54/26
f 53/54/27 54/53/27 56/55/27 55/56/27
f 55/56/28 56/55/28 58/57/28 57/58/28
f 57/58/29 58/57/29 60/59/29 59/60/29
f 59/60/30 60/59/30 62/61/30 61/62/30
f 14/13/31 12/11/31 70/63/31 71/64/31
f 61/62/32 62/61/32 64/65/32 63/66/32
f 63/66/33 64/65/33 2/67/33 1/68/33
f 3/4/34 5/6/34 163/69/34 162/70/34
f 67/71/35 65/72/35 97/73/35 99/74/35
f 32/31/36 30/29/36 79/75/36 80/76/36
f 50/49/37 48/47/37 88/77/37 89/78/37
f 6/5/38 4/3/38 65/72/38 67/71/38
f 24/23/39 22/21/39 75/79/39 76/80/39
f 42/41/40 40/39/40 84/81/40 85/82/40
f 60/59/41 58/57/41 93/83/41 94/84/41
f 16/15/42 14/13/42 71/64/42 72/85/42
f 34/33/43 32/31/43 80/76/43 81/86/43
f 52/51/44 50/49/44 89/78/44 90/87/44
f 8/7/45 6/5/45 67/71/45 68/88/45
f 26/25/46 24/23/46 76/80/46 77/89/46
f 44/43/47 42/41/47 85/82/47 86/90/47
f 62/61/48 60/59/48 94/84/48 95/91/48
f 18/17/49 16/15/49 72/85/49 73/92/49
f 36/35/50 34/33/50 81/86/50 82/93/50
f 54/53/51 52/51/51 90/87/51 91/94/51
f 10/9/52 8/7/52 68/88/52 69/95/52
f 28/27/53 26/25/53 77/89/53 78/96/53
f 46/45/54 44/43/54 86/90/54 87/97/54
f 64/65/55 62/61/55 95/91/55 96/98/55
f 20/19/56 18/17/56 73/92/56 74/99/56
f 38/37/57 36/35/57 82/93/57 83/100/57
f 56/55/58 54/53/58 91/94/58 92/101/58
f 12/11/59 10/9/59 69/95/59 70/63/59
f 30/29/60 28/27/60 78/96/60 79/75/60
f 48/47/61 46/45/61 87/97/61 88/77/61
f 4/3/62 2/2/62 66/102/62 65/72/62
f 2/67/63 64/65/63 96/98/63 66/103/63
f 22/21/64 20/19/64 74/99/64 75/79/64
f 40/39/65 38/37/65 83/100/65 84/81/65
f 58/57/66 56/55/66 92/101/66 93/83/66
f 102/104/5 101/105/5 133/106/5 134/107/5
f 94/84/67 93/83/67 125/108/67 126/109/67
f 81/86/68 80/76/68 112/110/68 113/111/68
f 68/88/69 67/71/69 99/74/69 100/112/69
f 95/91/70 94/84/70 126/109/70 127/113/70
f 82/93/71 81/86/71 113/111/71 114/114/71
f 69/95/72 68/88/72 100/112/72 101/105/72
f 96/98/73 95/91/73 127/113/73 128/115/73
f 83/100/74 82/93/74 114/114/74 115/116/74
f 70/63/75 69/95/75 101/105/75 102/104/75
f 66/103/76 96/98/76 128/115/76 98/117/76
f 84/81/77 83/100/77 115/116/77 116/118/77
f 71/64/78 70/63/78 102/104/78 103/119/78
f 85/82/79 84/81/79 116/118/79 117/120/79
f 72/85/80 71/64/80 103/119/80 104/121/80
f 86/90/81 85/82/81 117/120/81 118/122/81
f 73/92/82 72/85/82 104/121/82 105/123/82
f 87/97/83 86/90/83 118/122/83 119/124/83
f 74/99/84 73/92/84 105/123/84 106/125/84
f 88/77/85 87/97/85 119/124/85 120/126/85
f 75/79/86 74/99/86 106/125/86 107/127/86
f 89/78/87 88/77/87 120/126/87 121/128/87
f 76/80/88 75/79/88 107/127/88 108/129/88
f 90/87/89 89/78/89 121/128/89 122/130/89
f 77/89/90 76/80/90 108/129/90 109/131/90
f 91/94/91 90/87/91 122/130/91 123/132/91
f 78/96/92 77/89/92 109/131/92 110/133/92
f 92/101/93 91/94/93 123/132/93 124/134/93
f 79/75/94 78/96/94 110/133/94 111/135/94
f 65/72/95 66/102/95 98/136/95 97/73/95
f 93/83/96 92/101/96 124/134/96 125/108/96
f 80/76/97 79/75/97 111/135/97 112/110/97
f 129/137/98 130/138/98 160/139/98 159/140/98 158/141/98 157/142/98 156/143/98 155/144/98 154/145/98 153/146/98 152/147/98 151/148/98 150/149/98 149/150/98 148/151/98 147/152/98 146/153/98 145/154/98 144/155/98 143/156/98 142/157/98 141/158/98 140/159/98 139/160/98 138/161/98 137/162/98 136/163/98 135/164/98 134/165/98 133/166/98 132/167/98 131/168/98
f 98/117/33 128/115/33 160/169/33 130/170/33
f 116/118/19 115/116/19 147/171/19 148/172/19
f 103/119/6 102/104/6 134/107/6 135/173/6
f 117/120/20 116/118/20 148/172/20 149/174/20
f 104/121/7 103/119/7 135/173/7 136/175/7
f 118/122/21 117/120/21 149/174/21 150/176/21
f 105/123/8 104/121/8 136/175/8 137/177/8
f 119/124/22 118/122/22 150/176/22 151/178/22
f 106/125/9 105/123/9 137/177/9 138/179/9
f 120/126/23 119/124/23 151/178/23 152/180/23
f 107/127/10 106/125/10 138/179/10 139/181/10
f 121/128/24 120/126/24 152/180/24 153/182/24
f 108/129/11 107/127/11 139/181/11 140/183/11
f 122/130/25 121/128/25 153/182/25 154/184/25
f 109/131/12 108/129/12 140/183/12 141/185/12
f 123/132/26 122/130/26 154/184/26 155/186/26
f 110/133/13 109/131/13 141/185/13 142/187/13
f 124/134/27 123/132/27 155/186/27 156/188/27
f 111/135/14 110/133/14 142/187/14 143/189/14
f 97/73/1 98/136/1 130/190/1 129/191/1
f 125/108/28 124/134/28 156/188/28 157/192/28
f 112/110/15 111/135/15 143/189/15 144/193/15
f 99/74/2 97/73/2 129/191/2 131/194/2
f 126/109/29 125/108/29 157/192/29 158/195/29
f 113/111/16 112/110/16 144/193/16 145/196/16
f 100/112/3 99/74/3 131/194/3 132/197/3
f 127/113/30 126/109/30 158/195/30 159/198/30
f 114/114/17 113/111/17 145/196/17 146/199/17
f 101/105/4 100/112/4 132/197/4 133/106/4
f 128/115/32 127/113/32 159/198/32 160/169/32
f 115/116/18 114/114/18 146/199/18 147/171/18
f 185/200/9 186/201/9 218/202/9 217/203/9
f 21/22/34 23/24/34 172/204/34 171/205/34
f 39/40/34 41/42/34 181/206/34 180/207/34
f 57/58/34 59/60/34 190/208/34 189/209/34
f 13/14/34 15/16/34 168/210/34 167/211/34
f 31/32/34 33/34/34 177/212/34 176/213/34
f 49/50/34 51/52/34 186/201/34 185/200/34
f 5/6/34 7/8/34 164/214/34 163/69/34
f 23/24/34 25/26/34 173/215/34 172/204/34
f 41/42/34 43/44/34 182/216/34 181/206/34
f 59/60/34 61/62/34 191/217/34 190/208/34
f 15/16/34 17/18/34 169/218/34 168/210/34
f 33/34/34 35/36/34 178/219/34 177/212/34
f 51/52/34 53/54/34 187/220/34 186/201/34
f 7/8/34 9/10/34 165/221/34 164/214/34
f 25/26/34 27/28/34 174/222/34 173/215/34
f 43/44/34 45/46/34 183/223/34 182/216/34
f 61/62/34 63/66/34 192/224/34 191/217/34
f 17/18/34 19/20/34 170/225/34 169/218/34
f 35/36/34 37/38/34 179/226/34 178/219/34
f 53/54/34 55/56/34 188/227/34 187/220/34
f 9/10/34 11/12/34 166/228/34 165/221/34
f 27/28/34 29/30/34 175/229/34 174/222/34
f 45/46/34 47/48/34 184/230/34 183/223/34
f 1/1/34 3/4/34 162/70/34 161/231/34
f 63/66/34 1/68/34 161/232/34 192/224/34
f 19/20/34 21/22/34 171/205/34 170/225/34
f 37/38/34 39/40/34 180/207/34 179/226/34
f 55/56/34 57/58/34 189/209/34 188/227/34
f 11/12/34 13/14/34 167/211/34 166/228/34
f 29/30/34 31/32/34 176/213/34 175/229/34
f 47/48/34 49/50/34 185/200/34 184/230/34
f 193/233/34 194/234/34 195/235/34 196/236/34 197/237/34 198/238/34 199/239/34 200/240/34 201/241/34 202/242/34 203/243/34 204/244/34 205/245/34 206/246/34 207/247/34 208/248/34 209/249/34 210/250/34 211/251/34 212/252/34 213/253/34 214/254/34 215/255/34 216/256/34 217/257/34 218/258/34 219/259/34 220/260/34 221/261/34 222/262/34 223/263/34 224/264/34
f 172/204/28 173/215/28 205/265/28 204/266/28
f 186/201/10 187/220/10 219/267/10 218/202/10
f 173/215/29 174/222/29 206/268/29 205/265/29
f 187/220/11 188/227/11 220/269/11 219/267/11
f 174/222/30 175/229/30 207/270/30 206/268/30
f 161/231/17 162/70/17 194/271/17 193/272/17
f 188/227/12 189/209/12 221/273/12 220/269/12
f 175/229/32 176/213/32 208/274/32 207/270/32
f 162/70/18 163/69/18 195/275/18 194/271/18
f 189/209/13 190/208/13 222/276/13 221/273/13
f 176/213/33 177/212/33 209/277/33 208/274/33
f 163/69/19 164/214/19 196/278/19 195/275/19
f 190/208/14 191/217/14 223/279/14 222/276/14
f 177/212/1 178/219/1 210/280/1 209/277/1
f 164/214/20 165/221/20 197/281/20 196/278/20
f 191/217/15 192/224/15 224/282/15 223/279/15
f 178/219/2 179/226/2 211/283/2 210/280/2
f 165/221/21 166/228/21 198/284/21 197/281/21
f 192/224/16 161/232/16 193/285/16 224/282/16
f 179/226/3 180/207/3 212/286/3 211/283/3
f 166/228/22 167/211/22 199/287/22 198/284/22
f 180/207/4 181/206/4 213/288/4 212/286/4
f 167/211/23 168/210/23 200/289/23 199/287/23
f 181/206/5 182/216/5 214/290/5 213/288/5
f 168/210/24 169/218/24 201/291/24 200/289/24
f 182/216/6 183/223/6 215/292/6 214/290/6
f 169/218/25 170/225/25 202/293/25 201/291/25
f 183/223/7 184/230/7 216/294/7 215/292/7
f 170/225/26 171/205/26 203/295/26 202/293/26
f 184/230/8 185/200/8 217/203/8 216/294/8
f 171/205/27 172/204/27 204/266/27 203/295/27
