# Blender v2.82 (sub 7) OBJ File: 'Receptical.blend'
# www.blender.org
mtllib RecepticalCover.mtl
o Cube.005_Cube.006
v -1.716740 -1.944550 3.018719
v -1.716740 -2.030785 3.018719
v -1.716740 -1.944550 -3.018719
v -1.716740 -2.030785 -3.018719
v 1.795267 -1.944550 3.018719
v 1.795267 -2.030785 3.018719
v 1.795267 -1.944550 -3.018719
v 1.795267 -2.030785 -3.018719
v -1.716740 -1.944550 -1.566479
v -1.716740 -1.944550 -0.262115
v -1.716740 -2.030785 -0.262115
v -1.716740 -2.030785 -1.566479
v 1.795267 -1.944550 -0.262115
v 1.795267 -1.944550 -1.566479
v 1.795267 -2.030785 -1.566479
v 1.795267 -2.030785 -0.262115
v -1.716740 -1.944550 -1.305606
v -1.716740 -1.944550 -1.044733
v -1.716740 -1.944550 -0.783860
v -1.716740 -1.944550 -0.522987
v -1.716740 -2.030785 -0.522988
v -1.716740 -2.030785 -0.783860
v -1.716740 -2.030785 -1.044733
v -1.716740 -2.030785 -1.305606
v 1.795267 -1.944550 -0.522988
v 1.795267 -1.944550 -0.783860
v 1.795267 -1.944550 -1.044733
v 1.795267 -1.944550 -1.305606
v 1.795267 -2.030785 -1.305606
v 1.795267 -2.030785 -1.044733
v 1.795267 -2.030785 -0.783860
v 1.795267 -2.030785 -0.522987
v 0.867792 -1.944550 -3.018719
v -0.789265 -1.944550 -3.018719
v -0.789265 -2.030785 -3.018719
v 0.867792 -2.030785 -3.018719
v -0.789265 -1.944550 3.018719
v 0.867792 -1.944550 3.018719
v 0.867792 -2.030785 3.018719
v -0.789265 -2.030785 3.018719
v -0.497521 -2.030785 -1.566479
v 0.576048 -2.030785 -1.566479
v -0.452541 -2.030785 -0.262115
v 0.531068 -2.030785 -0.262115
v 0.576048 -1.944550 -1.566479
v -0.497521 -1.944550 -1.566479
v 0.531068 -1.944550 -0.262115
v -0.452541 -1.944550 -0.262115
v 0.768960 -1.944550 -1.305606
v -0.690433 -1.944550 -1.305606
v 0.840584 -1.944550 -1.044733
v -0.762058 -1.944550 -1.044733
v 0.849186 -1.944550 -0.783860
v -0.770660 -1.944550 -0.783860
v 0.758422 -1.944550 -0.522988
v -0.679895 -1.944550 -0.522987
v -0.690433 -2.030785 -1.305606
v 0.768960 -2.030785 -1.305606
v -0.762058 -2.030785 -1.044733
v 0.840584 -2.030785 -1.044733
v -0.770660 -2.030785 -0.783860
v 0.849186 -2.030785 -0.783860
v -0.679895 -2.030785 -0.522988
v 0.758422 -2.030785 -0.522987
v -1.716740 -1.944550 0.264891
v -1.716740 -1.944550 0.701116
v -1.716740 -1.944550 1.137342
v -1.716740 -1.944550 1.573567
v 1.795267 -2.030785 0.264891
v 1.795267 -2.030785 0.701116
v 1.795267 -2.030785 1.137342
v 1.795267 -2.030785 1.573567
v -1.716740 -2.030785 1.573567
v -1.716740 -2.030785 1.137342
v -1.716740 -2.030785 0.701116
v -1.716740 -2.030785 0.264891
v 1.795267 -1.944550 1.573567
v 1.795267 -1.944550 1.137342
v 1.795267 -1.944550 0.701116
v 1.795267 -1.944550 0.264891
v 0.537885 -2.030785 0.264891
v 0.831459 -2.030785 0.766769
v 0.852676 -2.030785 1.071689
v 0.566528 -2.030785 1.573567
v -0.459359 -2.030785 0.264891
v -0.752932 -2.030785 0.766769
v -0.774149 -2.030785 1.071689
v -0.488001 -2.030785 1.573567
v -0.459359 -1.944550 0.264891
v -0.752932 -1.944550 0.766769
v -0.774149 -1.944550 1.071689
v -0.488001 -1.944550 1.573567
v 0.537885 -1.944550 0.264891
v 0.831459 -1.944550 0.766769
v 0.852676 -1.944550 1.071689
v 0.566528 -1.944550 1.573567
v -1.716740 -1.944550 0.483004
v 1.795267 -2.030785 0.483004
v -1.716740 -2.030785 0.483004
v 1.795267 -1.944550 0.483004
v 0.767657 -2.030785 0.483004
v -0.689131 -2.030785 0.483004
v -0.689131 -1.944550 0.483004
v 0.767657 -1.944550 0.483004
v -1.716740 -1.944550 1.355454
v 1.795267 -2.030785 1.355454
v -1.716740 -2.030785 1.355454
v 1.795267 -1.944550 1.355454
v 0.741457 -2.030785 1.355454
v -0.662930 -2.030785 1.355454
v -0.662930 -1.944550 1.355454
v 0.741457 -1.944550 1.355454
v -1.867851 -1.768035 1.636018
v -1.867851 -1.768035 3.138593
v -1.867851 -1.854270 3.138593
v -1.867851 -1.854270 -1.628796
v -1.867851 -1.854270 -3.138740
v -1.867851 -1.768035 -3.138740
v -0.860563 -1.768035 -3.138740
v 0.939090 -1.854270 -3.138740
v 1.946378 -1.854270 -3.138740
v 1.946378 -1.768035 -3.138740
v 1.946378 -1.768035 -1.628796
v 1.946378 -1.854270 1.636018
v 1.946378 -1.854270 3.138593
v 1.946378 -1.768035 3.138593
v 0.939090 -1.768035 3.138593
v -0.860563 -1.854270 3.138593
v -1.867851 -1.768035 -1.628796
v -1.867851 -1.768035 -0.543842
v -1.867851 -1.768035 -0.272603
v -1.867851 -1.854270 0.275343
v -1.867851 -1.854270 -0.272603
v -1.867851 -1.854270 -1.357557
v 1.946378 -1.768035 0.275343
v 1.946378 -1.768035 -0.272603
v 1.946378 -1.768035 -1.357557
v 1.946378 -1.854270 -1.628796
v 1.946378 -1.854270 -0.543842
v 1.946378 -1.854270 -0.272603
v -1.867851 -1.768035 -1.357557
v -1.867851 -1.768035 -1.086318
v -1.867851 -1.768035 -0.815080
v -1.867851 -1.854270 -0.543842
v -1.867851 -1.854270 -0.815080
v -1.867851 -1.854270 -1.086319
v 1.946378 -1.768035 -0.543842
v 1.946378 -1.768035 -0.815080
v 1.946378 -1.768035 -1.086319
v 1.946378 -1.854270 -1.357557
v 1.946378 -1.854270 -1.086318
v 1.946378 -1.854270 -0.815080
v 0.939090 -1.768035 -3.138740
v -0.860563 -1.854270 -3.138740
v -0.860563 -1.768035 3.138593
v 0.939090 -1.854270 3.138593
v -1.867851 -1.768035 0.275343
v -1.867851 -1.768035 0.502122
v -1.867851 -1.768035 0.728901
v -1.867851 -1.768035 1.182460
v -1.867851 -1.768035 1.409239
v 1.946378 -1.854270 0.275343
v 1.946378 -1.854270 0.502122
v 1.946378 -1.854270 0.728901
v 1.946378 -1.854270 1.182460
v 1.946378 -1.854270 1.409239
v -1.867851 -1.854270 1.636018
v -1.867851 -1.854270 1.409239
v -1.867851 -1.854270 1.182460
v -1.867851 -1.854270 0.728901
v -1.867851 -1.854270 0.502122
v 1.946378 -1.768035 1.636018
v 1.946378 -1.768035 1.409239
v 1.946378 -1.768035 1.182460
v 1.946378 -1.768035 0.728901
v 1.946378 -1.768035 0.502122
vt 0.125000 0.687675
vt 0.125000 0.687675
vt 0.125000 0.699667
vt 0.125000 0.699667
vt 0.125000 0.651700
vt 0.125000 0.651700
vt 0.125000 0.663691
vt 0.125000 0.663691
vt 0.125000 0.630081
vt 0.125000 0.630081
vt 0.125000 0.639708
vt 0.125000 0.639708
vt 0.625000 0.613415
vt 0.625000 0.613415
vt 0.625000 0.630081
vt 0.625000 0.630081
vt 0.291667 0.711659
vt 0.291667 0.750000
vt 0.375000 0.750000
vt 0.375000 0.711659
vt 0.791667 0.711659
vt 0.791667 0.750000
vt 0.875000 0.750000
vt 0.875000 0.711659
vt 0.791667 0.500000
vt 0.791667 0.546748
vt 0.875000 0.546748
vt 0.875000 0.500000
vt 0.791667 0.613415
vt 0.791667 0.630081
vt 0.875000 0.630081
vt 0.875000 0.613415
vt 0.291667 0.500000
vt 0.291667 0.546748
vt 0.375000 0.546748
vt 0.375000 0.500000
vt 0.291667 0.613415
vt 0.291667 0.630081
vt 0.375000 0.630081
vt 0.375000 0.613415
vt 0.625000 0.500000
vt 0.625000 0.500000
vt 0.625000 0.546748
vt 0.625000 0.546748
vt 0.375000 0.563415
vt 0.375000 0.563415
vt 0.375000 0.546748
vt 0.625000 0.596748
vt 0.625000 0.596748
vt 0.375000 0.639708
vt 0.375000 0.639708
vt 0.375000 0.630081
vt 0.625000 0.580081
vt 0.625000 0.580081
vt 0.875000 0.563415
vt 0.875000 0.563415
vt 0.875000 0.546748
vt 0.625000 0.563415
vt 0.625000 0.563415
vt 0.708333 0.750000
vt 0.708333 0.750000
vt 0.791667 0.750000
vt 0.875000 0.639708
vt 0.875000 0.639708
vt 0.875000 0.630081
vt 0.625000 0.750000
vt 0.625000 0.750000
vt 0.125000 0.613415
vt 0.125000 0.613415
vt 0.291667 0.563415
vt 0.291667 0.580081
vt 0.375000 0.580081
vt 0.291667 0.596748
vt 0.375000 0.596748
vt 0.791667 0.563415
vt 0.791667 0.580081
vt 0.875000 0.580081
vt 0.791667 0.596748
vt 0.875000 0.596748
vt 0.708333 0.613415
vt 0.708333 0.596748
vt 0.708333 0.580081
vt 0.708333 0.563415
vt 0.708333 0.546748
vt 0.125000 0.596748
vt 0.208333 0.613415
vt 0.208333 0.596748
vt 0.208333 0.546748
vt 0.125000 0.580081
vt 0.208333 0.580081
vt 0.208333 0.563415
vt 0.125000 0.563415
vt 0.125000 0.546748
vt 0.208333 0.630081
vt 0.125000 0.500000
vt 0.208333 0.500000
vt 0.708333 0.630081
vt 0.708333 0.500000
vt 0.625000 0.711659
vt 0.708333 0.711659
vt 0.125000 0.711659
vt 0.125000 0.750000
vt 0.208333 0.750000
vt 0.208333 0.711659
vt 0.375000 0.580081
vt 0.208333 0.750000
vt 0.291667 0.750000
vt 0.125000 0.500000
vt 0.125000 0.546748
vt 0.375000 0.596748
vt 0.208333 0.639708
vt 0.291667 0.639708
vt 0.708333 0.651699
vt 0.291667 0.651699
vt 0.708333 0.639708
vt 0.791667 0.639708
vt 0.791667 0.651699
vt 0.208333 0.651699
vt 0.208333 0.663691
vt 0.208333 0.687675
vt 0.208333 0.699667
vt 0.791667 0.687675
vt 0.791667 0.663691
vt 0.791667 0.699667
vt 0.625000 0.639708
vt 0.625000 0.651700
vt 0.625000 0.663691
vt 0.708333 0.663691
vt 0.625000 0.687675
vt 0.708333 0.687675
vt 0.625000 0.699667
vt 0.708333 0.699667
vt 0.125000 0.750000
vt 0.875000 0.750000
vt 0.375000 0.613415
vt 0.791667 0.500000
vt 0.708333 0.500000
vt 0.875000 0.663691
vt 0.875000 0.651700
vt 0.875000 0.687675
vt 0.875000 0.699667
vt 0.291667 0.663691
vt 0.375000 0.663691
vt 0.375000 0.651700
vt 0.291667 0.687675
vt 0.375000 0.687675
vt 0.291667 0.699667
vt 0.375000 0.699667
vt 0.375000 0.750000
vt 0.875000 0.500000
vt 0.875000 0.580081
vt 0.291667 0.500000
vt 0.208333 0.500000
vt 0.625000 0.711659
vt 0.375000 0.651700
vt 0.875000 0.596748
vt 0.375000 0.203252
vt 0.375000 0.250000
vt 0.625000 0.250000
vt 0.625000 0.203252
vt 0.375000 0.416667
vt 0.375000 0.500000
vt 0.625000 0.416667
vt 0.375000 0.711659
vt 0.375000 0.916667
vt 0.375000 1.000000
vt 0.625000 1.000000
vt 0.625000 0.916667
vt 0.375000 0.110292
vt 0.375000 0.119919
vt 0.625000 0.119919
vt 0.625000 0.110292
vt 0.375000 0.186585
vt 0.625000 0.186585
vt 0.375000 0.136585
vt 0.625000 0.136585
vt 0.375000 0.153252
vt 0.625000 0.153252
vt 0.375000 0.169919
vt 0.625000 0.169919
vt 0.375000 0.833333
vt 0.625000 0.833333
vt 0.375000 0.333333
vt 0.625000 0.333333
vt 0.375000 0.000000
vt 0.375000 0.038341
vt 0.625000 0.038341
vt 0.625000 0.000000
vt 0.375000 0.050333
vt 0.375000 0.062325
vt 0.625000 0.062325
vt 0.625000 0.050333
vt 0.375000 0.086309
vt 0.625000 0.086309
vt 0.375000 0.098300
vt 0.625000 0.098300
vt 0.625000 0.639708
vt 0.375000 0.663691
vt 0.625000 0.663691
vt 0.625000 0.651700
vt 0.375000 0.687675
vt 0.625000 0.687675
vt 0.375000 0.699667
vt 0.625000 0.699667
vt 0.125000 0.711659
vt 0.875000 0.711659
vt 0.875000 0.699667
vt 0.125000 0.563415
vt 0.875000 0.687675
vt 0.125000 0.580081
vt 0.875000 0.663691
vt 0.125000 0.596748
vt 0.875000 0.651700
vt 0.875000 0.613415
vn 0.7597 0.6503 0.0000
vn 0.7597 -0.6503 0.0000
vn 0.0000 1.0000 0.0000
vn 0.0000 -1.0000 -0.0000
vn -0.7597 0.6503 0.0000
vn -0.7597 -0.6503 0.0000
vn 0.0000 -0.5618 0.8273
vn -0.9445 -0.0000 -0.3286
vn -0.9995 -0.0000 0.0330
vn -0.9643 0.0000 0.2648
vn -0.8040 0.0000 0.5946
vn 0.0000 0.0000 1.0000
vn 0.8040 0.0000 0.5946
vn 0.9643 0.0000 0.2648
vn 0.9995 0.0000 0.0330
vn 0.9445 0.0000 -0.3286
vn 0.7539 0.0000 -0.6570
vn 0.0000 0.5618 -0.8273
vn -0.6885 0.0000 0.7253
vn 0.6885 0.0000 0.7253
vn 0.9976 0.0000 0.0694
vn 0.9310 0.0000 -0.3649
vn -0.7539 -0.0000 -0.6570
vn 0.0000 -0.5623 -0.8269
vn 0.0000 0.5623 0.8269
vn 0.7801 0.0000 -0.6257
vn 0.0000 0.0000 -1.0000
vn 0.9756 0.0000 0.2194
vn -0.9756 0.0000 0.2194
vn -0.9976 0.0000 0.0694
vn -0.9310 0.0000 -0.3649
vn -0.7801 0.0000 -0.6257
vn -1.0000 0.0000 0.0000
vn 1.0000 0.0000 0.0000
usemtl None
s off
f 67/1/1 160/2/1 161/3/1 105/4/1
f 97/5/1 158/6/1 159/7/1 66/8/1
f 10/9/1 131/10/1 157/11/1 65/12/1
f 32/13/2 139/14/2 140/15/2 16/16/2
f 96/17/3 38/18/3 5/19/3 77/20/3
f 88/21/4 40/22/4 2/23/4 73/24/4
f 35/25/4 41/26/4 12/27/4 4/28/4
f 63/29/4 43/30/4 11/31/4 21/32/4
f 33/33/3 45/34/3 14/35/3 7/36/3
f 55/37/3 47/38/3 13/39/3 25/40/3
f 8/41/2 121/42/2 138/43/2 15/44/2
f 28/45/5 137/46/5 123/47/5 14/35/5
f 31/48/2 152/49/2 139/14/2 32/13/2
f 80/50/5 135/51/5 136/52/5 13/39/5
f 30/53/2 151/54/2 152/49/2 31/48/2
f 24/55/6 134/56/6 116/57/6 12/27/6
f 29/58/2 150/59/2 151/54/2 30/53/2
f 39/60/7 156/61/7 128/62/7 40/22/7
f 76/63/6 132/64/6 133/65/6 11/31/6
f 15/44/2 138/43/2 150/59/2 29/58/2
f 6/66/7 125/67/7 156/61/7 39/60/7
f 20/68/1 130/69/1 131/10/1 10/9/1
f 45/34/3 49/70/3 28/45/3 14/35/3
f 49/70/3 51/71/3 27/72/3 28/45/3
f 51/71/3 53/73/3 26/74/3 27/72/3
f 53/73/3 55/37/3 25/40/3 26/74/3
f 41/26/4 57/75/4 24/55/4 12/27/4
f 57/75/4 59/76/4 23/77/4 24/55/4
f 59/76/4 61/78/4 22/79/4 23/77/4
f 61/78/4 63/29/4 21/32/4 22/79/4
f 31/48/4 32/13/4 64/80/4 62/81/4
f 64/80/8 55/37/8 53/73/8 62/81/8
f 30/53/4 31/48/4 62/81/4 60/82/4
f 62/81/9 53/73/9 51/71/9 60/82/9
f 29/58/4 30/53/4 60/82/4 58/83/4
f 49/70/10 58/83/10 60/82/10 51/71/10
f 15/44/4 29/58/4 58/83/4 42/84/4
f 49/70/11 45/34/11 42/84/11 58/83/11
f 19/85/3 20/68/3 56/86/3 54/87/3
f 41/26/12 42/84/12 45/34/12 46/88/12
f 18/89/3 19/85/3 54/87/3 52/90/3
f 46/88/13 50/91/13 57/75/13 41/26/13
f 17/92/3 18/89/3 52/90/3 50/91/3
f 50/91/14 52/90/14 59/76/14 57/75/14
f 9/93/3 17/92/3 50/91/3 46/88/3
f 52/90/15 54/87/15 61/78/15 59/76/15
f 20/68/3 10/9/3 48/94/3 56/86/3
f 61/78/16 54/87/16 56/86/16 63/29/16
f 3/95/3 9/93/3 46/88/3 34/96/3
f 34/96/3 46/88/3 45/34/3 33/33/3
f 32/13/4 16/16/4 44/97/4 64/80/4
f 43/30/17 63/29/17 56/86/17 48/94/17
f 8/41/4 15/44/4 42/84/4 36/98/4
f 36/98/4 42/84/4 41/26/4 35/25/4
f 72/99/4 6/66/4 39/60/4 84/100/4
f 84/100/4 39/60/4 40/22/4 88/21/4
f 68/101/3 1/102/3 37/103/3 92/104/3
f 92/104/3 37/103/3 38/18/3 96/17/3
f 27/72/5 149/105/5 137/46/5 28/45/5
f 37/103/18 155/106/18 127/107/18 38/18/18
f 3/95/1 118/108/1 129/109/1 9/93/1
f 26/74/5 148/110/5 149/105/5 27/72/5
f 48/94/3 89/111/3 93/112/3 47/38/3
f 101/113/19 104/114/19 93/112/19 81/115/19
f 93/112/12 89/111/12 85/116/12 81/115/12
f 102/117/20 85/116/20 89/111/20 103/118/20
f 10/9/3 65/12/3 89/111/3 48/94/3
f 97/5/3 66/8/3 90/119/3 103/118/3
f 66/8/3 67/1/3 91/120/3 90/119/3
f 105/4/3 68/101/3 92/104/3 111/121/3
f 44/97/4 81/115/4 85/116/4 43/30/4
f 87/122/21 86/123/21 90/119/21 91/120/21
f 91/120/22 111/121/22 110/124/22 87/122/22
f 47/38/23 55/37/23 64/80/23 44/97/23
f 16/16/4 69/125/4 81/115/4 44/97/4
f 98/126/4 70/127/4 82/128/4 101/113/4
f 70/127/4 71/129/4 83/130/4 82/128/4
f 106/131/4 72/99/4 84/100/4 109/132/4
f 1/102/18 114/133/18 155/106/18 37/103/18
f 40/22/7 128/62/7 115/134/7 2/23/7
f 25/40/5 147/135/5 148/110/5 26/74/5
f 35/25/24 154/136/24 120/137/24 36/98/24
f 43/30/4 85/116/4 76/63/4 11/31/4
f 102/117/4 86/123/4 75/138/4 99/139/4
f 86/123/4 87/122/4 74/140/4 75/138/4
f 110/124/4 88/21/4 73/24/4 107/141/4
f 47/38/3 93/112/3 80/50/3 13/39/3
f 104/114/3 94/142/3 79/143/3 100/144/3
f 94/142/3 95/145/3 78/146/3 79/143/3
f 112/147/3 96/17/3 77/20/3 108/148/3
f 38/18/18 127/107/18 126/149/18 5/19/18
f 13/39/5 136/52/5 147/135/5 25/40/5
f 4/28/24 117/150/24 154/136/24 35/25/24
f 23/77/6 146/151/6 134/56/6 24/55/6
f 33/33/25 153/152/25 119/153/25 34/96/25
f 93/112/3 104/114/3 100/144/3 80/50/3
f 85/116/4 102/117/4 99/139/4 76/63/4
f 72/99/2 124/154/2 125/67/2 6/66/2
f 69/125/4 98/126/4 101/113/4 81/115/4
f 88/21/26 110/124/26 111/121/26 92/104/26
f 65/12/3 97/5/3 103/118/3 89/111/3
f 96/17/27 84/100/27 88/21/27 92/104/27
f 100/144/5 176/155/5 135/51/5 80/50/5
f 95/145/3 112/147/3 108/148/3 78/146/3
f 87/122/4 110/124/4 107/141/4 74/140/4
f 22/79/6 145/156/6 146/151/6 23/77/6
f 71/129/4 106/131/4 109/132/4 83/130/4
f 43/30/27 48/94/27 47/38/27 44/97/27
f 67/1/3 105/4/3 111/121/3 91/120/3
f 86/123/28 102/117/28 103/118/28 90/119/28
f 82/128/29 94/142/29 104/114/29 101/113/29
f 83/130/30 95/145/30 94/142/30 82/128/30
f 109/132/31 112/147/31 95/145/31 83/130/31
f 84/100/32 96/17/32 112/147/32 109/132/32
f 129/157/33 118/158/33 117/159/33 116/160/33
f 153/161/27 122/162/27 121/42/27 120/163/27
f 172/164/34 126/149/34 125/67/34 124/154/34
f 155/165/12 114/166/12 115/167/12 128/168/12
f 122/162/34 123/47/34 138/43/34 121/42/34
f 147/135/34 136/52/34 140/15/34 139/14/34
f 157/169/33 131/170/33 133/171/33 132/172/33
f 141/173/33 129/157/33 116/160/33 134/174/33
f 131/170/33 130/175/33 144/176/33 133/171/33
f 130/175/33 143/177/33 145/178/33 144/176/33
f 143/177/33 142/179/33 146/180/33 145/178/33
f 142/179/33 141/173/33 134/174/33 146/180/33
f 123/47/34 137/46/34 150/59/34 138/43/34
f 137/46/34 149/105/34 151/54/34 150/59/34
f 149/105/34 148/110/34 152/49/34 151/54/34
f 148/110/34 147/135/34 139/14/34 152/49/34
f 126/149/12 127/181/12 156/182/12 125/67/12
f 127/181/12 155/165/12 128/168/12 156/182/12
f 118/158/27 119/183/27 154/184/27 117/159/27
f 119/183/27 153/161/27 120/163/27 154/184/27
f 114/185/33 113/186/33 167/187/33 115/188/33
f 161/189/33 160/190/33 169/191/33 168/192/33
f 160/190/33 159/193/33 170/194/33 169/191/33
f 158/195/33 157/169/33 132/172/33 171/196/33
f 136/52/34 135/51/34 162/197/34 140/15/34
f 176/155/34 175/198/34 164/199/34 163/200/34
f 175/198/34 174/201/34 165/202/34 164/199/34
f 173/203/34 172/164/34 124/154/34 166/204/34
f 135/51/34 176/155/34 163/200/34 162/197/34
f 159/193/33 158/195/33 171/196/33 170/194/33
f 174/201/34 173/203/34 166/204/34 165/202/34
f 113/186/33 161/189/33 168/192/33 167/187/33
f 66/8/1 159/7/1 160/2/1 67/1/1
f 71/129/2 165/202/2 166/204/2 106/131/2
f 105/4/1 161/3/1 113/205/1 68/101/1
f 73/24/6 167/206/6 168/207/6 107/141/6
f 16/16/2 140/15/2 162/197/2 69/125/2
f 77/20/5 172/164/5 173/203/5 108/148/5
f 98/126/2 163/200/2 164/199/2 70/127/2
f 70/127/2 164/199/2 165/202/2 71/129/2
f 68/101/1 113/205/1 114/133/1 1/102/1
f 106/131/2 166/204/2 124/154/2 72/99/2
f 2/23/6 115/134/6 167/206/6 73/24/6
f 9/93/1 129/109/1 141/208/1 17/92/1
f 12/27/6 116/57/6 117/150/6 4/28/6
f 107/141/6 168/207/6 169/209/6 74/140/6
f 17/92/1 141/208/1 142/210/1 18/89/1
f 74/140/6 169/209/6 170/211/6 75/138/6
f 18/89/1 142/210/1 143/212/1 19/85/1
f 99/139/6 171/213/6 132/64/6 76/63/6
f 34/96/25 119/153/25 118/108/25 3/95/25
f 65/12/1 157/11/1 158/6/1 97/5/1
f 19/85/1 143/212/1 130/69/1 20/68/1
f 5/19/5 126/149/5 172/164/5 77/20/5
f 36/98/24 120/137/24 121/42/24 8/41/24
f 69/125/2 162/197/2 163/200/2 98/126/2
f 11/31/6 133/65/6 144/214/6 21/32/6
f 108/148/5 173/203/5 174/201/5 78/146/5
f 75/138/6 170/211/6 171/213/6 99/139/6
f 21/32/6 144/214/6 145/156/6 22/79/6
f 78/146/5 174/201/5 175/198/5 79/143/5
f 14/35/5 123/47/5 122/162/5 7/36/5
f 79/143/5 175/198/5 176/155/5 100/144/5
f 7/36/25 122/162/25 153/152/25 33/33/25
