# Blender v2.82 (sub 7) OBJ File: 'Panel Box.blend'
# www.blender.org
mtllib B phase bus.mtl
o Plane.001_Plane.004
v -0.019698 0.092603 -0.175739
v 0.019698 0.092603 -0.175739
v -0.019698 0.092603 -0.025090
v -0.019698 0.115682 -0.007899
v -0.019698 0.115682 0.009292
v -0.019698 0.092603 0.026483
v 0.019698 0.092603 0.026483
v 0.019698 0.115682 0.009292
v 0.019698 0.115682 -0.007899
v 0.019698 0.092603 -0.025090
v -0.019698 0.092603 0.139189
v -0.019698 0.115682 0.156071
v -0.019698 0.115682 0.172953
v -0.019698 0.092603 0.189835
v 0.019698 0.092603 0.189835
v 0.019698 0.115682 0.172953
v 0.019698 0.115682 0.156071
v 0.019698 0.092603 0.139189
v -0.019698 0.092603 0.301845
v -0.019698 0.115682 0.318740
v -0.019698 0.115682 0.335636
v -0.019698 0.092603 0.352532
v 0.019698 0.092603 0.352532
v 0.019698 0.115682 0.335636
v 0.019698 0.115682 0.318740
v 0.019698 0.092603 0.301845
v -0.019698 0.092603 0.463568
v -0.019698 0.115682 0.480646
v -0.019698 0.115682 0.497724
v -0.019698 0.092603 0.514802
v 0.019698 0.092603 0.514802
v 0.019698 0.115682 0.497724
v 0.019698 0.115682 0.480646
v 0.019698 0.092603 0.463568
v -0.019698 0.092603 0.626900
v -0.019698 0.115682 0.644050
v -0.019698 0.115682 0.661200
v -0.019698 0.092603 0.678349
v 0.019698 0.092603 0.678349
v 0.019698 0.115682 0.661200
v 0.019698 0.115682 0.644050
v 0.019698 0.092603 0.626900
v -0.019698 0.092603 0.790138
v -0.019698 0.115682 0.806917
v -0.019698 0.115682 0.823696
v -0.019698 0.092603 0.840474
v 0.019698 0.092603 0.840474
v 0.019698 0.115682 0.823696
v 0.019698 0.115682 0.806917
v 0.019698 0.092603 0.790138
v -0.019698 0.092603 0.955383
v -0.019698 0.115682 0.971685
v -0.019698 0.115682 0.987988
v -0.019698 0.092603 1.004290
v 0.019698 0.092603 1.004290
v 0.019698 0.115682 0.987988
v 0.019698 0.115682 0.971685
v 0.019698 0.092603 0.955383
v -0.019698 0.092603 1.115719
v -0.019698 0.115682 1.132946
v -0.019698 0.115682 1.150172
v -0.019698 0.092603 1.167399
v 0.019698 0.092603 1.167399
v 0.019698 0.115682 1.150172
v 0.019698 0.115682 1.132946
v 0.019698 0.092603 1.115719
v -0.019698 0.092603 1.279402
v -0.019698 0.115682 1.296453
v -0.019698 0.115682 1.313504
v -0.019698 0.092603 1.330555
v 0.019698 0.092603 1.330555
v 0.019698 0.115682 1.313504
v 0.019698 0.115682 1.296453
v 0.019698 0.092603 1.279402
v -0.019698 0.092603 1.443736
v -0.019698 0.115682 1.460052
v -0.019698 0.115682 1.476369
v -0.019698 0.092603 1.492686
v 0.019698 0.092603 1.492686
v 0.019698 0.115682 1.476369
v 0.019698 0.115682 1.460052
v 0.019698 0.092603 1.443736
v -0.019698 0.092603 1.606008
v -0.019698 0.115682 1.623113
v -0.019698 0.115682 1.640218
v -0.019698 0.092603 1.657323
v 0.019698 0.092603 1.657323
v 0.019698 0.115682 1.640218
v 0.019698 0.115682 1.623113
v 0.019698 0.092603 1.606008
vt 0.000000 0.800000
vt 1.000000 0.800000
vt 1.000000 1.000000
vt 0.000000 1.000000
vt 0.000000 0.160000
vt 1.000000 0.160000
vt 1.000000 0.200000
vt 0.000000 0.200000
vt 1.000000 0.400000
vt 0.000000 0.400000
vt 1.000000 0.600000
vt 0.000000 0.600000
vt 0.000000 0.032000
vt 1.000000 0.032000
vt 1.000000 0.040000
vt 0.000000 0.040000
vt 1.000000 0.080000
vt 0.000000 0.080000
vt 1.000000 0.120000
vt 0.000000 0.120000
vt 0.000000 0.006400
vt 1.000000 0.006400
vt 1.000000 0.008000
vt 0.000000 0.008000
vt 1.000000 0.016000
vt 0.000000 0.016000
vt 1.000000 0.024000
vt 0.000000 0.024000
vt 0.000000 0.001280
vt 1.000000 0.001280
vt 1.000000 0.001600
vt 0.000000 0.001600
vt 1.000000 0.003200
vt 0.000000 0.003200
vt 1.000000 0.004800
vt 0.000000 0.004800
vt 0.000000 0.000256
vt 1.000000 0.000256
vt 1.000000 0.000320
vt 0.000000 0.000320
vt 1.000000 0.000640
vt 0.000000 0.000640
vt 1.000000 0.000960
vt 0.000000 0.000960
vt 0.000000 0.000051
vt 1.000000 0.000051
vt 1.000000 0.000064
vt 0.000000 0.000064
vt 1.000000 0.000128
vt 0.000000 0.000128
vt 1.000000 0.000192
vt 0.000000 0.000192
vt 0.000000 0.000010
vt 1.000000 0.000010
vt 1.000000 0.000013
vt 0.000000 0.000013
vt 1.000000 0.000026
vt 0.000000 0.000026
vt 1.000000 0.000038
vt 0.000000 0.000038
vt 0.000000 0.000002
vt 1.000000 0.000002
vt 1.000000 0.000003
vt 0.000000 0.000003
vt 1.000000 0.000005
vt 0.000000 0.000005
vt 1.000000 0.000008
vt 0.000000 0.000008
vt 0.000000 0.000000
vt 1.000000 0.000000
vt 1.000000 0.000001
vt 0.000000 0.000001
vt 1.000000 0.000001
vt 0.000000 0.000001
vt 1.000000 0.000002
vt 0.000000 0.000002
vt 0.000000 0.000000
vt 1.000000 0.000000
vt 1.000000 0.000000
vt 0.000000 0.000000
vt 1.000000 0.000000
vt 0.000000 0.000000
vt 1.000000 0.000000
vt 0.000000 0.000000
vt 0.000000 0.000000
vt 1.000000 0.000000
vt 1.000000 0.000000
vt 0.000000 0.000000
vt 1.000000 0.000000
vt 0.000000 0.000000
vn 0.0000 1.0000 0.0000
vn 0.0000 0.5974 0.8020
vn 0.0000 0.5974 -0.8020
vn 0.0000 0.5904 0.8071
vn -0.0000 0.5904 -0.8071
vn 0.0000 0.5907 0.8069
vn 0.0000 0.5907 -0.8069
vn 0.0000 0.5948 0.8039
vn 0.0000 0.5948 -0.8039
vn 0.0000 0.5964 0.8027
vn 0.0000 0.5964 -0.8027
vn 0.0000 0.5880 0.8088
vn 0.0000 0.5880 -0.8088
vn 0.0000 0.5769 0.8168
vn 0.0000 0.5769 -0.8168
vn -0.0000 0.5982 0.8014
vn 0.0000 0.5982 -0.8014
vn 0.0000 0.5942 0.8043
vn 0.0000 0.5942 -0.8043
vn 0.0000 0.5773 0.8165
vn 0.0000 0.5773 -0.8165
vn 0.0000 0.5954 0.8034
vn 0.0000 0.5954 -0.8034
usemtl None
s off
f 3/1/1 10/2/1 2/3/1 1/4/1
f 11/5/1 18/6/1 7/7/1 6/8/1
f 6/8/2 7/7/2 8/9/2 5/10/2
f 5/10/1 8/9/1 9/11/1 4/12/1
f 4/12/3 9/11/3 10/2/3 3/1/3
f 19/13/1 26/14/1 15/15/1 14/16/1
f 14/16/4 15/15/4 16/17/4 13/18/4
f 13/18/1 16/17/1 17/19/1 12/20/1
f 12/20/5 17/19/5 18/6/5 11/5/5
f 27/21/1 34/22/1 23/23/1 22/24/1
f 22/24/6 23/23/6 24/25/6 21/26/6
f 21/26/1 24/25/1 25/27/1 20/28/1
f 20/28/7 25/27/7 26/14/7 19/13/7
f 35/29/1 42/30/1 31/31/1 30/32/1
f 30/32/8 31/31/8 32/33/8 29/34/8
f 29/34/1 32/33/1 33/35/1 28/36/1
f 28/36/9 33/35/9 34/22/9 27/21/9
f 43/37/1 50/38/1 39/39/1 38/40/1
f 38/40/10 39/39/10 40/41/10 37/42/10
f 37/42/1 40/41/1 41/43/1 36/44/1
f 36/44/11 41/43/11 42/30/11 35/29/11
f 51/45/1 58/46/1 47/47/1 46/48/1
f 46/48/12 47/47/12 48/49/12 45/50/12
f 45/50/1 48/49/1 49/51/1 44/52/1
f 44/52/13 49/51/13 50/38/13 43/37/13
f 59/53/1 66/54/1 55/55/1 54/56/1
f 54/56/14 55/55/14 56/57/14 53/58/14
f 53/58/1 56/57/1 57/59/1 52/60/1
f 52/60/15 57/59/15 58/46/15 51/45/15
f 67/61/1 74/62/1 63/63/1 62/64/1
f 62/64/16 63/63/16 64/65/16 61/66/16
f 61/66/1 64/65/1 65/67/1 60/68/1
f 60/68/17 65/67/17 66/54/17 59/53/17
f 75/69/1 82/70/1 71/71/1 70/72/1
f 70/72/18 71/71/18 72/73/18 69/74/18
f 69/74/1 72/73/1 73/75/1 68/76/1
f 68/76/19 73/75/19 74/62/19 67/61/19
f 83/77/1 90/78/1 79/79/1 78/80/1
f 78/80/20 79/79/20 80/81/20 77/82/20
f 77/82/1 80/81/1 81/83/1 76/84/1
f 76/84/21 81/83/21 82/70/21 75/69/21
f 86/85/22 87/86/22 88/87/22 85/88/22
f 85/88/1 88/87/1 89/89/1 84/90/1
f 84/90/23 89/89/23 90/78/23 83/77/23
o Cylinder.004
v -0.386259 0.121225 -0.454349
v -0.386259 0.121225 -0.273679
v -0.378320 0.120443 -0.454349
v -0.378320 0.120443 -0.273679
v -0.370685 0.118127 -0.454349
v -0.370685 0.118127 -0.273679
v -0.363649 0.114366 -0.454349
v -0.363649 0.114366 -0.273679
v -0.357482 0.109305 -0.454349
v -0.357482 0.109305 -0.273679
v -0.352421 0.103138 -0.454349
v -0.352421 0.103138 -0.273679
v -0.348661 0.096102 -0.454349
v -0.348661 0.096102 -0.273679
v -0.346345 0.088468 -0.454349
v -0.346345 0.088468 -0.273679
v -0.345563 0.080528 -0.454349
v -0.345563 0.080528 -0.273679
v -0.346345 0.072589 -0.454349
v -0.346345 0.072589 -0.273679
v -0.348661 0.064954 -0.454349
v -0.348661 0.064954 -0.273679
v -0.352421 0.057919 -0.454349
v -0.352421 0.057919 -0.273679
v -0.357482 0.051752 -0.454349
v -0.357482 0.051752 -0.273679
v -0.363649 0.046690 -0.454349
v -0.363649 0.046690 -0.273679
v -0.370685 0.042930 -0.454349
v -0.370685 0.042930 -0.273679
v -0.378320 0.040614 -0.454349
v -0.378320 0.040614 -0.273679
v -0.386259 0.039832 -0.454349
v -0.386259 0.039832 -0.273679
v -0.394199 0.040614 -0.454349
v -0.394199 0.040614 -0.273679
v -0.401833 0.042930 -0.454349
v -0.401833 0.042930 -0.273679
v -0.408869 0.046690 -0.454349
v -0.408869 0.046690 -0.273679
v -0.415036 0.051752 -0.454349
v -0.415036 0.051752 -0.273679
v -0.420097 0.057919 -0.454349
v -0.420097 0.057919 -0.273679
v -0.423858 0.064954 -0.454349
v -0.423858 0.064954 -0.273679
v -0.426174 0.072589 -0.454349
v -0.426174 0.072589 -0.273679
v -0.426956 0.080528 -0.454349
v -0.426956 0.080528 -0.273679
v -0.426174 0.088468 -0.454349
v -0.426174 0.088468 -0.273679
v -0.423858 0.096102 -0.454349
v -0.423858 0.096102 -0.273679
v -0.420097 0.103138 -0.454349
v -0.420097 0.103138 -0.273679
v -0.415036 0.109305 -0.454349
v -0.415036 0.109305 -0.273679
v -0.408869 0.114366 -0.454349
v -0.408869 0.114366 -0.273679
v -0.401833 0.118127 -0.454349
v -0.401833 0.118127 -0.273679
v -0.394199 0.120443 -0.454349
v -0.394199 0.120443 -0.273679
vt 1.000000 0.500000
vt 1.000000 1.000000
vt 0.968750 1.000000
vt 0.968750 0.500000
vt 0.937500 1.000000
vt 0.937500 0.500000
vt 0.906250 1.000000
vt 0.906250 0.500000
vt 0.875000 1.000000
vt 0.875000 0.500000
vt 0.843750 1.000000
vt 0.843750 0.500000
vt 0.812500 1.000000
vt 0.812500 0.500000
vt 0.781250 1.000000
vt 0.781250 0.500000
vt 0.750000 1.000000
vt 0.750000 0.500000
vt 0.718750 1.000000
vt 0.718750 0.500000
vt 0.687500 1.000000
vt 0.687500 0.500000
vt 0.656250 1.000000
vt 0.656250 0.500000
vt 0.625000 1.000000
vt 0.625000 0.500000
vt 0.593750 1.000000
vt 0.593750 0.500000
vt 0.562500 1.000000
vt 0.562500 0.500000
vt 0.531250 1.000000
vt 0.531250 0.500000
vt 0.500000 1.000000
vt 0.500000 0.500000
vt 0.468750 1.000000
vt 0.468750 0.500000
vt 0.437500 1.000000
vt 0.437500 0.500000
vt 0.406250 1.000000
vt 0.406250 0.500000
vt 0.375000 1.000000
vt 0.375000 0.500000
vt 0.343750 1.000000
vt 0.343750 0.500000
vt 0.312500 1.000000
vt 0.312500 0.500000
vt 0.281250 1.000000
vt 0.281250 0.500000
vt 0.250000 1.000000
vt 0.250000 0.500000
vt 0.218750 1.000000
vt 0.218750 0.500000
vt 0.187500 1.000000
vt 0.187500 0.500000
vt 0.156250 1.000000
vt 0.156250 0.500000
vt 0.125000 1.000000
vt 0.125000 0.500000
vt 0.093750 1.000000
vt 0.093750 0.500000
vt 0.062500 1.000000
vt 0.062500 0.500000
vt 0.296822 0.485388
vt 0.250000 0.490000
vt 0.203179 0.485389
vt 0.158156 0.471731
vt 0.116663 0.449553
vt 0.080295 0.419706
vt 0.050447 0.383337
vt 0.028269 0.341844
vt 0.014612 0.296822
vt 0.010000 0.250000
vt 0.014611 0.203179
vt 0.028269 0.158156
vt 0.050447 0.116663
vt 0.080294 0.080294
vt 0.116663 0.050447
vt 0.158156 0.028269
vt 0.203178 0.014612
vt 0.250000 0.010000
vt 0.296822 0.014612
vt 0.341844 0.028269
vt 0.383337 0.050447
vt 0.419706 0.080294
vt 0.449553 0.116663
vt 0.471731 0.158156
vt 0.485388 0.203178
vt 0.490000 0.250000
vt 0.485388 0.296822
vt 0.471731 0.341844
vt 0.449553 0.383337
vt 0.419706 0.419706
vt 0.383337 0.449553
vt 0.341844 0.471731
vt 0.031250 1.000000
vt 0.031250 0.500000
vt 0.000000 1.000000
vt 0.000000 0.500000
vt 0.750000 0.490000
vt 0.796822 0.485388
vt 0.841844 0.471731
vt 0.883337 0.449553
vt 0.919706 0.419706
vt 0.949553 0.383337
vt 0.971731 0.341844
vt 0.985388 0.296822
vt 0.990000 0.250000
vt 0.985388 0.203178
vt 0.971731 0.158156
vt 0.949553 0.116663
vt 0.919706 0.080294
vt 0.883337 0.050447
vt 0.841844 0.028269
vt 0.796822 0.014612
vt 0.750000 0.010000
vt 0.703178 0.014612
vt 0.658156 0.028269
vt 0.616663 0.050447
vt 0.580294 0.080294
vt 0.550447 0.116663
vt 0.528269 0.158156
vt 0.514611 0.203179
vt 0.510000 0.250000
vt 0.514612 0.296822
vt 0.528269 0.341844
vt 0.550447 0.383337
vt 0.580295 0.419706
vt 0.616663 0.449553
vt 0.658156 0.471731
vt 0.703179 0.485389
vn 0.0980 0.9952 0.0000
vn 0.2903 0.9569 0.0000
vn 0.4714 0.8819 0.0000
vn 0.6344 0.7730 0.0000
vn 0.7730 0.6344 0.0000
vn 0.8819 0.4714 0.0000
vn 0.9569 0.2903 0.0000
vn 0.9952 0.0980 0.0000
vn 0.9952 -0.0980 -0.0000
vn 0.9569 -0.2903 -0.0000
vn 0.8819 -0.4714 -0.0000
vn 0.7730 -0.6344 -0.0000
vn 0.6344 -0.7730 -0.0000
vn 0.4714 -0.8819 -0.0000
vn 0.2903 -0.9569 -0.0000
vn 0.0980 -0.9952 -0.0000
vn -0.0980 -0.9952 -0.0000
vn -0.2903 -0.9569 -0.0000
vn -0.4714 -0.8819 -0.0000
vn -0.6344 -0.7730 -0.0000
vn -0.7730 -0.6344 -0.0000
vn -0.8819 -0.4714 -0.0000
vn -0.9569 -0.2903 -0.0000
vn -0.9952 -0.0980 0.0000
vn -0.9952 0.0980 0.0000
vn -0.9569 0.2903 0.0000
vn -0.8819 0.4714 0.0000
vn -0.7730 0.6344 0.0000
vn -0.6344 0.7730 0.0000
vn -0.4714 0.8819 0.0000
vn 0.0000 0.0000 1.0000
vn -0.2903 0.9569 0.0000
vn -0.0980 0.9952 0.0000
vn -0.0000 0.0000 -1.0000
usemtl None
s off
f 91/91/24 92/92/24 94/93/24 93/94/24
f 93/94/25 94/93/25 96/95/25 95/96/25
f 95/96/26 96/95/26 98/97/26 97/98/26
f 97/98/27 98/97/27 100/99/27 99/100/27
f 99/100/28 100/99/28 102/101/28 101/102/28
f 101/102/29 102/101/29 104/103/29 103/104/29
f 103/104/30 104/103/30 106/105/30 105/106/30
f 105/106/31 106/105/31 108/107/31 107/108/31
f 107/108/32 108/107/32 110/109/32 109/110/32
f 109/110/33 110/109/33 112/111/33 111/112/33
f 111/112/34 112/111/34 114/113/34 113/114/34
f 113/114/35 114/113/35 116/115/35 115/116/35
f 115/116/36 116/115/36 118/117/36 117/118/36
f 117/118/37 118/117/37 120/119/37 119/120/37
f 119/120/38 120/119/38 122/121/38 121/122/38
f 121/122/39 122/121/39 124/123/39 123/124/39
f 123/124/40 124/123/40 126/125/40 125/126/40
f 125/126/41 126/125/41 128/127/41 127/128/41
f 127/128/42 128/127/42 130/129/42 129/130/42
f 129/130/43 130/129/43 132/131/43 131/132/43
f 131/132/44 132/131/44 134/133/44 133/134/44
f 133/134/45 134/133/45 136/135/45 135/136/45
f 135/136/46 136/135/46 138/137/46 137/138/46
f 137/138/47 138/137/47 140/139/47 139/140/47
f 139/140/48 140/139/48 142/141/48 141/142/48
f 141/142/49 142/141/49 144/143/49 143/144/49
f 143/144/50 144/143/50 146/145/50 145/146/50
f 145/146/51 146/145/51 148/147/51 147/148/51
f 147/148/52 148/147/52 150/149/52 149/150/52
f 149/150/53 150/149/53 152/151/53 151/152/53
f 94/153/54 92/154/54 154/155/54 152/156/54 150/157/54 148/158/54 146/159/54 144/160/54 142/161/54 140/162/54 138/163/54 136/164/54 134/165/54 132/166/54 130/167/54 128/168/54 126/169/54 124/170/54 122/171/54 120/172/54 118/173/54 116/174/54 114/175/54 112/176/54 110/177/54 108/178/54 106/179/54 104/180/54 102/181/54 100/182/54 98/183/54 96/184/54
f 151/152/55 152/151/55 154/185/55 153/186/55
f 153/186/56 154/185/56 92/187/56 91/188/56
f 91/189/57 93/190/57 95/191/57 97/192/57 99/193/57 101/194/57 103/195/57 105/196/57 107/197/57 109/198/57 111/199/57 113/200/57 115/201/57 117/202/57 119/203/57 121/204/57 123/205/57 125/206/57 127/207/57 129/208/57 131/209/57 133/210/57 135/211/57 137/212/57 139/213/57 141/214/57 143/215/57 145/216/57 147/217/57 149/218/57 151/219/57 153/220/57
o Plane.006_Plane.013
v -0.407957 0.197728 -0.354304
v -0.364562 0.197728 -0.354304
v -0.407957 0.197728 -0.373724
v -0.364562 0.197728 -0.373724
v -0.393492 0.197728 -0.342317
v -0.379027 0.197728 -0.342317
v -0.379027 0.197728 -0.385711
v -0.393492 0.197728 -0.385711
v -0.407957 0.197728 -0.364014
v -0.364562 0.197728 -0.364014
v -0.393492 0.197728 -0.364014
v -0.379027 0.197728 -0.364014
v -0.407957 0.147607 -0.354304
v -0.364562 0.147607 -0.354304
v -0.407957 0.147607 -0.373724
v -0.364562 0.147607 -0.373724
v -0.393492 0.147607 -0.342317
v -0.379027 0.147607 -0.342317
v -0.379027 0.147607 -0.385711
v -0.393492 0.147607 -0.385711
v -0.407957 0.147607 -0.364014
v -0.364562 0.147607 -0.364014
v -0.393492 0.147607 -0.364014
v -0.379027 0.147607 -0.364014
vt 0.666667 0.500000
vt 1.000000 0.500000
vt 1.000000 1.000000
vt 0.666667 1.000000
vt 0.000000 0.500000
vt 0.333333 0.500000
vt 0.333333 1.000000
vt 0.000000 1.000000
vt 0.333333 0.000000
vt 0.666667 0.000000
vt 0.000000 0.000000
vt 1.000000 0.000000
vt 0.666667 0.500000
vt 0.666667 1.000000
vt 1.000000 1.000000
vt 1.000000 0.500000
vt 0.000000 0.500000
vt 0.000000 1.000000
vt 0.333333 1.000000
vt 0.333333 0.500000
vt 0.333333 0.000000
vt 0.666667 0.000000
vt 0.000000 0.000000
vt 1.000000 0.000000
vn 0.0000 1.0000 0.0000
vn 0.0000 -1.0000 0.0000
vn -1.0000 0.0000 0.0000
vn 0.6381 0.0000 0.7700
vn 1.0000 0.0000 0.0000
vn -0.6381 0.0000 -0.7700
vn -0.6381 0.0000 0.7700
vn 0.0000 0.0000 1.0000
vn 0.6381 0.0000 -0.7700
vn 0.0000 0.0000 -1.0000
usemtl None
s off
f 166/221/58 164/222/58 158/223/58 161/224/58
f 163/225/58 165/226/58 162/227/58 157/228/58
f 165/226/58 166/221/58 161/224/58 162/227/58
f 159/229/58 160/230/58 166/221/58 165/226/58
f 155/231/58 159/229/58 165/226/58 163/225/58
f 160/230/58 156/232/58 164/222/58 166/221/58
f 178/233/59 173/234/59 170/235/59 176/236/59
f 175/237/59 169/238/59 174/239/59 177/240/59
f 177/240/59 174/239/59 173/234/59 178/233/59
f 171/241/59 177/240/59 178/233/59 172/242/59
f 167/243/59 175/237/59 177/240/59 171/241/59
f 172/242/59 178/233/59 176/236/59 168/244/59
f 155/231/60 163/225/60 175/237/60 167/243/60
f 156/232/61 160/230/61 172/242/61 168/244/61
f 158/223/62 164/222/62 176/236/62 170/235/62
f 157/228/63 162/227/63 174/239/63 169/238/63
f 159/229/64 155/231/64 167/243/64 171/241/64
f 160/230/65 159/229/65 171/241/65 172/242/65
f 161/224/66 158/223/66 170/235/66 173/234/66
f 162/227/67 161/224/67 173/234/67 174/239/67
f 163/225/60 157/228/60 169/238/60 175/237/60
f 164/222/62 156/232/62 168/244/62 176/236/62
