# Blender v2.82 (sub 7) OBJ File: 'Breaker Panel.blend'
# www.blender.org
mtllib PanelMainBraker.mtl
o Cube.008_Cube.010
v -0.286455 0.008646 -0.702498
v -0.286455 0.382642 -0.702498
v -0.286455 0.008646 -1.275408
v -0.286455 0.382642 -1.275408
v 0.286455 0.008646 -0.702498
v 0.286455 0.382642 -0.702498
v 0.286455 0.008646 -1.275408
v 0.286455 0.382642 -1.275408
v -0.074448 0.382642 -0.855788
v -0.074448 0.382642 -1.122119
v 0.074448 0.382642 -0.855788
v 0.074448 0.382642 -1.122119
v -0.074448 0.396407 -0.855788
v -0.074448 0.396407 -1.122119
v 0.074448 0.396407 -0.855788
v 0.074448 0.396407 -1.122119
v -0.060841 0.396407 -0.867996
v -0.060841 0.396407 -1.109910
v 0.060841 0.396407 -0.867996
v 0.060841 0.396407 -1.109910
v -0.060841 0.373511 -0.867996
v -0.060841 0.373511 -1.109910
v 0.060841 0.373511 -0.867996
v 0.060841 0.373511 -1.109910
vt 0.375000 0.000000
vt 0.625000 0.000000
vt 0.625000 0.250000
vt 0.375000 0.250000
vt 0.625000 0.500000
vt 0.375000 0.500000
vt 0.625000 0.750000
vt 0.375000 0.750000
vt 0.625000 1.000000
vt 0.375000 1.000000
vt 0.125000 0.500000
vt 0.125000 0.750000
vt 0.625000 0.000000
vt 0.625000 0.250000
vt 0.625000 0.500000
vt 0.625000 0.250000
vt 0.625000 0.500000
vt 0.625000 0.750000
vt 0.625000 1.000000
vt 0.625000 0.750000
vt 0.625000 0.500000
vt 0.625000 0.750000
vt 0.625000 0.000000
vt 0.625000 1.000000
vt 0.625000 1.000000
vt 0.625000 0.750000
vt 0.625000 1.000000
vt 0.625000 0.000000
vt 0.625000 0.250000
vt 0.625000 0.500000
vt 0.875000 0.500000
vt 0.875000 0.750000
vt 0.625000 0.250000
vt 0.625000 0.000000
vn -1.0000 0.0000 0.0000
vn 0.0000 0.0000 -1.0000
vn 1.0000 0.0000 0.0000
vn 0.0000 0.0000 1.0000
vn 0.0000 -1.0000 0.0000
vn 0.0000 1.0000 0.0000
usemtl None
s off
f 1/1/1 2/2/1 4/3/1 3/4/1
f 3/4/2 4/3/2 8/5/2 7/6/2
f 7/6/3 8/5/3 6/7/3 5/8/3
f 5/8/4 6/7/4 2/9/4 1/10/4
f 3/11/5 7/6/5 5/8/5 1/12/5
f 4/3/6 2/2/6 9/13/6 10/14/6
f 12/15/2 10/14/2 14/16/2 16/17/2
f 2/9/6 6/7/6 11/18/6 9/19/6
f 8/5/6 4/3/6 10/14/6 12/15/6
f 6/7/6 8/5/6 12/15/6 11/18/6
f 15/20/6 16/17/6 20/21/6 19/22/6
f 11/18/3 12/15/3 16/17/3 15/20/3
f 10/14/1 9/13/1 13/23/1 14/16/1
f 9/19/4 11/18/4 15/20/4 13/24/4
f 17/25/2 19/22/2 23/26/2 21/27/2
f 14/16/6 13/23/6 17/28/6 18/29/6
f 13/24/6 15/20/6 19/22/6 17/25/6
f 16/17/6 14/16/6 18/29/6 20/21/6
f 24/30/6 22/31/6 21/32/6 23/26/6
f 20/21/4 18/29/4 22/33/4 24/30/4
f 19/22/1 20/21/1 24/30/1 23/26/1
f 18/29/3 17/28/3 21/34/3 22/33/3
